<?xml version="1.0" standalone="no"?>
<!DOCTYPE svg PUBLIC "-//W3C//DTD SVG 20010904//EN"
 "http://www.w3.org/TR/2001/REC-SVG-20010904/DTD/svg10.dtd">
<svg version="1.0" xmlns="http://www.w3.org/2000/svg"
 width="2048.000000pt" height="2048.000000pt" viewBox="0 0 2048.000000 2048.000000"
 preserveAspectRatio="xMidYMid meet">
<metadata>
Created by potrace 1.14, written by Peter Selinger 2001-2017
</metadata>
<g transform="translate(0.000000,2048.000000) scale(0.100000,-0.100000)"
fill="#000000" stroke="none">
<path d="M2180 17311 c-6 -11 -9 -12 -10 -3 0 10 -5 10 -22 -2 -12 -9 -30 -16
-40 -16 -10 0 -18 -4 -18 -10 0 -5 -3 -9 -7 -9 -5 1 -11 0 -15 -1 -13 -4 -27
-7 -38 -9 -5 0 -10 -5 -10 -11 0 -5 8 -7 18 -4 14 5 14 4 2 -4 -8 -6 -17 -9
-21 -6 -4 2 -12 -3 -19 -11 -7 -8 -18 -15 -25 -15 -19 0 -76 -50 -70 -60 3 -5
-4 -14 -15 -20 -11 -6 -18 -15 -15 -20 3 -5 -4 -12 -16 -15 -16 -5 -18 -9 -9
-15 9 -6 7 -10 -9 -15 -11 -3 -21 -11 -21 -16 0 -6 4 -8 9 -4 5 3 13 0 17 -6
4 -8 3 -9 -4 -5 -18 11 -59 -40 -58 -71 1 -24 -3 -28 -22 -25 -21 3 -22 1 -12
-18 7 -14 8 -20 1 -16 -12 8 -33 -28 -23 -40 4 -5 -1 -2 -11 5 -9 8 -20 11
-24 7 -3 -3 -2 -6 4 -6 5 0 10 -6 10 -13 0 -8 -10 -13 -21 -11 -12 1 -20 7
-18 15 2 9 0 11 -6 4 -12 -12 -21 -95 -11 -95 4 0 5 -9 2 -20 -6 -21 -22 -28
-24 -10 -1 6 -3 15 -4 20 -1 6 -3 16 -4 23 -2 21 -30 16 -28 -5 1 -12 7 -16
16 -13 12 5 12 3 0 -12 -8 -10 -18 -21 -24 -25 -6 -5 -5 -8 2 -8 7 0 10 -7 7
-15 -4 -9 0 -15 7 -15 11 0 11 -3 -1 -10 -13 -8 -13 -10 2 -10 22 0 29 -13 16
-30 -8 -12 -9 -12 -4 3 3 9 1 17 -5 17 -14 0 -2 -52 24 -110 22 -47 36 -62 49
-54 4 3 5 -2 2 -10 -4 -10 -1 -16 7 -16 11 0 11 -3 -1 -10 -13 -8 -12 -10 3
-10 10 0 15 -4 12 -10 -3 -5 1 -10 9 -10 10 0 13 -7 11 -20 -2 -11 0 -18 5
-15 5 3 11 -4 15 -15 3 -11 11 -20 16 -20 5 0 9 -7 9 -15 0 -8 5 -15 10 -15 6
0 10 -7 10 -15 0 -7 8 -19 18 -24 9 -6 13 -11 7 -11 -6 0 -6 -3 0 -8 12 -8 49
-64 48 -72 0 -3 8 -11 18 -18 11 -7 19 -19 19 -26 0 -7 11 -23 25 -36 14 -13
25 -29 25 -37 0 -7 4 -13 9 -13 5 0 13 -9 16 -20 4 -11 17 -31 30 -44 13 -13
21 -27 18 -30 -4 -3 -1 -6 5 -6 7 0 11 -3 11 -7 -3 -20 2 -33 13 -30 7 1 12
-3 13 -10 0 -6 9 -22 20 -35 11 -13 31 -40 44 -60 12 -21 27 -38 32 -38 5 0 9
-5 9 -11 0 -11 20 -39 72 -101 15 -18 28 -39 28 -46 0 -7 5 -10 10 -7 6 3 10
-2 10 -12 0 -10 9 -25 20 -33 11 -8 20 -20 20 -27 0 -6 6 -16 13 -20 16 -11
52 -66 49 -76 -1 -5 2 -6 7 -3 5 4 15 -7 22 -23 7 -16 17 -27 21 -25 4 3 8 -2
8 -10 0 -9 4 -16 9 -16 5 0 12 -8 15 -18 3 -9 19 -32 35 -50 17 -17 28 -32 25
-32 -3 0 13 -24 36 -53 22 -30 40 -59 40 -66 0 -7 5 -9 10 -6 6 3 10 0 10 -7
0 -8 9 -20 19 -28 11 -7 18 -17 15 -22 -3 -4 0 -8 7 -8 7 0 10 -3 6 -6 -5 -5
0 -13 46 -67 10 -12 26 -34 35 -49 9 -16 20 -28 24 -28 4 0 8 -5 8 -11 0 -6 6
-16 13 -23 6 -7 23 -28 37 -46 21 -28 66 -83 205 -249 11 -13 35 -39 53 -58
18 -18 30 -33 27 -33 -3 0 3 -8 13 -18 9 -11 20 -17 25 -15 4 3 7 1 6 -4 -3
-20 2 -34 11 -28 6 3 10 1 10 -5 0 -6 18 -29 40 -51 22 -22 40 -42 40 -44 0
-2 12 -18 28 -34 15 -16 56 -61 92 -101 36 -40 92 -101 126 -136 33 -35 58
-64 56 -64 -3 0 14 -19 36 -42 23 -24 54 -58 70 -75 16 -18 35 -33 42 -33 7 0
10 -3 7 -7 -10 -10 44 -64 56 -56 6 3 7 1 4 -4 -8 -12 249 -279 263 -276 6 2
9 -1 7 -6 -2 -9 90 -111 101 -111 4 0 16 -14 27 -30 11 -16 26 -30 33 -30 7 0
11 -4 8 -8 -3 -5 6 -15 19 -22 14 -7 25 -19 25 -27 0 -12 12 -17 32 -14 4 0 5
-6 2 -14 -4 -8 -2 -15 3 -15 6 0 29 -20 53 -44 24 -25 49 -42 55 -39 5 4 7 3
3 -2 -9 -10 96 -115 116 -115 9 0 15 -3 15 -7 -3 -17 1 -36 7 -31 3 3 34 -23
68 -58 35 -35 66 -64 70 -64 3 0 19 -13 34 -30 16 -16 32 -26 36 -22 4 4 6 2
4 -3 -4 -14 48 -66 70 -70 10 -1 16 -9 14 -19 -2 -9 1 -16 6 -16 5 0 24 -15
43 -32 19 -18 37 -32 42 -30 4 1 7 -3 7 -9 0 -17 50 -60 61 -54 5 3 6 -1 3 -9
-3 -9 -1 -16 5 -16 6 0 21 -11 33 -25 11 -13 25 -22 30 -19 5 3 7 0 6 -8 -2
-7 3 -12 10 -10 8 1 11 -2 8 -7 -7 -11 18 -33 27 -24 4 3 7 1 7 -5 0 -17 52
-62 63 -55 6 3 7 1 4 -4 -7 -12 16 -36 26 -28 4 3 5 2 3 -1 -7 -9 17 -33 27
-27 4 2 7 -3 7 -12 0 -8 7 -18 15 -22 9 -3 33 -22 54 -42 79 -74 113 -101 122
-95 5 3 6 -2 3 -10 -3 -9 -1 -17 5 -17 26 -3 30 -4 38 -13 5 -6 2 -6 -7 -1
-13 8 -13 6 -1 -8 7 -9 17 -14 22 -11 5 3 9 -2 9 -10 0 -9 7 -16 16 -16 8 0
12 -4 9 -10 -6 -9 8 -14 27 -11 5 0 7 -3 5 -8 -3 -14 64 -71 76 -64 6 3 7 2 4
-4 -8 -13 50 -66 63 -58 6 4 7 -1 3 -11 -5 -14 -3 -16 12 -10 11 4 16 4 12 0
-10 -10 42 -56 55 -48 6 4 8 2 4 -4 -7 -12 33 -44 46 -36 5 3 7 0 6 -8 -2 -7
5 -12 14 -12 10 1 14 -4 11 -11 -5 -15 30 -38 42 -27 3 4 5 0 3 -8 -2 -8 3
-14 10 -13 6 2 12 -2 12 -7 0 -6 11 -15 25 -22 13 -6 22 -16 18 -21 -4 -6 0
-8 11 -4 9 4 15 3 12 -2 -8 -13 31 -44 45 -35 7 4 10 3 7 -2 -3 -5 0 -15 8
-22 8 -7 14 -10 14 -7 0 3 16 -11 35 -31 20 -21 40 -32 46 -28 8 4 9 3 5 -4
-7 -11 6 -17 27 -13 5 1 6 -3 2 -8 -3 -6 3 -15 14 -21 11 -5 35 -24 53 -40 18
-17 38 -30 46 -30 7 0 10 -4 7 -10 -3 -5 1 -10 9 -10 9 0 16 -4 16 -10 0 -5 5
-10 11 -10 5 0 7 6 3 13 -4 7 -3 9 2 4 5 -5 9 -13 9 -18 0 -5 2 -8 5 -7 3 1
17 -10 33 -25 15 -16 32 -25 39 -21 6 4 8 3 5 -2 -6 -11 86 -77 107 -77 8 0
12 -6 9 -12 -5 -14 24 -28 38 -19 5 3 9 -2 9 -10 0 -8 9 -18 20 -21 11 -3 20
-11 20 -17 0 -5 7 -7 16 -4 8 3 12 2 9 -3 -3 -6 8 -18 25 -27 16 -10 30 -22
30 -27 0 -5 7 -6 16 -3 8 3 12 2 9 -4 -6 -9 8 -14 28 -11 5 1 6 -3 3 -8 -4 -5
10 -19 29 -31 19 -12 35 -26 35 -32 0 -6 7 -8 15 -4 8 3 14 1 12 -3 -1 -5 3
-10 8 -12 6 -2 19 -13 30 -24 36 -38 77 -65 88 -58 6 4 7 1 2 -7 -6 -10 -4
-12 8 -7 11 4 14 2 10 -9 -3 -7 0 -14 6 -14 6 0 20 -8 30 -17 50 -46 74 -63
83 -56 7 3 8 1 4 -5 -4 -7 3 -17 18 -24 14 -6 26 -15 26 -21 0 -5 7 -7 14 -4
11 4 13 1 9 -10 -5 -13 -2 -15 12 -9 11 4 16 4 12 0 -9 -10 13 -35 24 -28 5 3
8 1 7 -4 -4 -14 43 -53 55 -45 5 3 7 1 4 -4 -7 -12 26 -46 36 -38 4 3 5 2 3
-1 -7 -9 126 -134 136 -128 4 3 5 -2 2 -10 -3 -9 -1 -16 5 -16 16 0 61 -46 61
-61 0 -7 3 -10 6 -6 3 3 26 -14 50 -39 25 -24 49 -44 54 -44 6 0 9 -4 8 -8 -4
-10 48 -62 62 -62 5 0 9 -6 8 -12 -2 -7 5 -12 14 -12 10 1 16 -2 13 -6 -7 -11
40 -51 50 -43 4 5 5 3 2 -3 -8 -14 17 -37 28 -26 5 4 6 2 2 -3 -6 -12 151
-171 165 -167 5 1 7 -1 4 -6 -7 -12 38 -54 48 -45 4 5 6 3 4 -3 -4 -14 170
-186 182 -179 5 3 12 0 16 -6 4 -8 3 -9 -4 -5 -7 4 -12 2 -12 -3 0 -6 4 -11
10 -11 5 0 39 -30 76 -67 36 -38 70 -67 75 -65 5 1 9 -3 9 -9 0 -16 72 -89 82
-83 5 3 8 2 7 -3 -3 -20 2 -34 11 -28 6 3 10 2 10 -3 0 -14 191 -207 202 -204
5 1 7 -2 4 -7 -7 -10 18 -33 27 -26 4 3 5 2 2 -1 -6 -9 101 -114 116 -114 7 0
9 -3 6 -6 -8 -9 55 -64 65 -58 4 3 5 -2 2 -10 -3 -9 -2 -16 3 -16 5 0 46 -36
91 -80 47 -45 88 -77 94 -74 6 4 8 3 5 -3 -6 -10 97 -113 114 -113 5 0 9 -7 9
-17 0 -9 3 -14 6 -11 3 3 24 -12 46 -33 23 -21 45 -39 50 -39 5 0 6 -4 3 -10
-3 -5 -2 -10 3 -10 6 0 24 -13 42 -30 18 -16 36 -30 41 -30 5 0 9 -7 9 -16 0
-11 5 -14 17 -10 10 4 14 4 10 0 -9 -9 74 -84 86 -77 6 3 7 1 4 -4 -6 -10 25
-46 34 -41 2 2 3 1 2 -1 -3 -6 46 -51 57 -51 6 0 8 -4 5 -10 -3 -5 1 -10 9
-10 9 0 16 -5 16 -11 0 -5 5 -7 10 -4 6 4 9 3 8 -2 -4 -12 44 -63 54 -57 4 3
8 -2 8 -11 0 -9 4 -14 9 -11 5 3 11 -1 15 -9 3 -8 13 -15 22 -15 10 0 15 -3
11 -6 -8 -9 54 -64 65 -58 5 3 7 0 6 -8 -2 -7 3 -12 10 -10 8 1 11 -1 8 -6 -7
-12 42 -54 54 -47 6 3 8 0 5 -7 -3 -8 7 -19 25 -26 17 -8 27 -18 23 -25 -4 -7
0 -8 11 -4 9 4 15 3 12 -2 -6 -9 64 -67 77 -63 5 1 6 -2 3 -7 -3 -5 10 -19 29
-32 19 -13 35 -28 35 -33 0 -4 7 -5 16 -2 8 3 12 2 9 -3 -6 -11 35 -42 47 -35
4 3 5 -2 2 -10 -3 -9 -2 -16 4 -16 5 0 24 -13 42 -30 18 -16 37 -27 44 -23 6
3 8 2 3 -2 -9 -11 21 -45 40 -45 8 0 11 -4 8 -10 -3 -5 3 -10 15 -10 12 0 18
-5 15 -10 -3 -5 -3 -10 2 -10 4 0 28 -18 52 -40 24 -22 48 -37 54 -33 6 3 7 1
3 -5 -7 -11 32 -38 47 -34 5 1 6 -2 3 -7 -8 -12 21 -34 34 -26 6 4 9 2 8 -3
-4 -12 58 -72 66 -65 3 4 6 1 6 -6 0 -7 5 -9 12 -5 7 4 8 3 4 -4 -3 -6 3 -16
14 -22 11 -6 37 -27 56 -46 20 -19 40 -32 45 -28 5 3 9 -1 9 -9 0 -15 27 -32
45 -28 5 2 7 -1 3 -5 -10 -9 54 -65 68 -60 6 3 11 -3 10 -12 -1 -10 6 -16 16
-16 10 1 16 -2 13 -6 -3 -4 12 -20 33 -36 20 -15 38 -32 40 -36 2 -4 10 -8 18
-8 9 0 12 -4 9 -10 -3 -5 -1 -10 5 -10 11 0 28 -12 61 -45 11 -11 28 -20 37
-20 9 0 17 -5 17 -10 0 -15 15 -35 26 -35 6 0 7 5 3 12 -4 7 -3 8 5 4 6 -4 9
-11 6 -16 -7 -11 45 -51 56 -44 5 3 8 1 7 -5 -4 -12 62 -62 73 -55 5 3 6 -3 2
-12 -5 -13 -3 -16 10 -11 10 4 16 2 14 -6 -1 -7 6 -11 15 -11 10 1 14 -4 11
-12 -3 -8 0 -14 6 -14 10 0 36 -18 67 -48 8 -7 18 -10 24 -7 6 4 9 2 8 -3 -3
-10 48 -62 61 -62 4 0 16 -9 26 -20 10 -11 22 -17 27 -14 4 3 7 0 6 -7 -2 -6
3 -14 11 -17 9 -3 11 0 6 8 -5 9 -4 11 4 6 6 -4 9 -11 6 -15 -7 -12 42 -54 55
-46 6 3 9 3 8 -2 -2 -5 15 -25 36 -44 22 -18 36 -28 31 -20 -5 10 -4 12 3 7 7
-4 12 -14 12 -22 0 -8 5 -14 10 -14 6 0 19 -9 30 -20 12 -12 26 -18 32 -14 6
4 8 3 5 -3 -9 -14 19 -37 33 -28 6 4 9 1 8 -7 -2 -7 3 -12 10 -10 8 1 11 -2 8
-7 -8 -13 34 -42 48 -34 6 3 8 3 4 -2 -4 -4 2 -17 15 -27 12 -11 37 -33 55
-49 19 -17 38 -27 45 -23 6 4 9 4 5 -1 -10 -10 19 -38 32 -30 6 4 7 -1 3 -11
-5 -14 -3 -16 11 -11 9 4 15 3 11 -2 -3 -5 13 -22 36 -38 22 -15 53 -40 69
-55 16 -16 32 -28 36 -28 3 0 15 -9 25 -21 11 -13 23 -18 31 -13 7 4 10 4 6 0
-10 -12 28 -49 41 -41 7 4 10 1 9 -7 -2 -7 4 -12 12 -10 8 2 12 0 8 -4 -12
-12 12 -33 29 -27 10 4 14 2 10 -4 -9 -14 19 -37 32 -28 7 3 8 0 5 -9 -3 -9
-1 -16 4 -16 6 0 23 -11 37 -26 14 -14 30 -22 37 -18 7 4 8 3 4 -4 -4 -7 0
-12 10 -12 10 0 15 -3 11 -6 -10 -10 74 -75 86 -67 7 3 9 2 5 -2 -10 -11 52
-66 65 -58 6 3 7 2 4 -4 -7 -11 67 -78 86 -78 6 0 12 -4 12 -10 0 -15 15 -35
26 -35 6 0 7 5 3 12 -4 7 -3 8 4 4 6 -4 9 -13 5 -21 -5 -14 8 -20 32 -15 5 1
7 -1 3 -5 -11 -11 20 -37 33 -29 7 4 9 3 6 -3 -7 -11 46 -63 63 -63 5 0 10 -5
10 -11 0 -5 5 -7 12 -3 7 5 8 3 4 -5 -5 -8 0 -14 13 -18 11 -3 18 -9 15 -14
-5 -8 9 -13 28 -10 5 0 7 -4 5 -11 -1 -7 8 -17 21 -23 12 -5 22 -13 22 -16 0
-7 116 -99 121 -96 2 1 3 0 2 -2 -6 -9 41 -40 51 -34 6 3 8 3 4 -1 -10 -12 28
-49 41 -41 7 4 10 1 9 -7 -2 -7 3 -12 9 -11 7 2 12 -3 10 -10 -1 -6 6 -11 15
-11 10 1 16 -2 13 -6 -7 -12 45 -51 58 -43 5 3 7 2 4 -4 -6 -10 7 -23 59 -60
17 -12 35 -19 39 -15 5 4 5 2 2 -5 -8 -13 41 -56 55 -47 5 3 15 1 23 -6 10 -8
19 -8 33 -1 17 9 19 7 18 -18 -1 -21 -5 -27 -18 -23 -13 3 -16 -1 -13 -18 2
-13 2 -20 -2 -17 -3 4 -17 -6 -29 -21 -23 -26 -28 -37 -25 -55 1 -5 -3 -6 -9
-2 -5 3 -10 3 -10 -2 0 -4 -11 -21 -25 -37 -14 -16 -25 -33 -25 -38 0 -5 -5
-6 -10 -3 -6 4 -10 3 -9 -2 4 -21 -2 -44 -10 -39 -11 7 -33 -43 -25 -56 4 -7
2 -8 -4 -4 -7 4 -12 2 -12 -4 0 -6 -5 -8 -12 -4 -8 5 -7 0 2 -11 10 -13 11
-16 2 -11 -13 8 -50 -30 -44 -46 1 -5 -3 -8 -9 -8 -5 0 -7 -5 -3 -12 5 -7 3
-8 -5 -4 -8 5 -14 1 -18 -12 -3 -11 -12 -23 -20 -26 -8 -3 -11 -10 -8 -16 3
-5 1 -10 -4 -10 -6 0 -11 -6 -11 -14 0 -8 -7 -17 -16 -20 -8 -3 -12 -10 -9
-16 3 -5 1 -10 -5 -10 -7 0 -9 -7 -6 -16 3 -8 2 -12 -4 -9 -6 3 -10 2 -10 -4
0 -5 -13 -25 -30 -43 -30 -33 -40 -55 -18 -42 7 5 8 3 4 -5 -5 -7 -10 -10 -13
-7 -7 6 -22 -9 -53 -54 -13 -19 -30 -41 -37 -48 -7 -8 -11 -18 -8 -23 4 -5 -1
-9 -10 -9 -9 0 -22 -15 -30 -32 -12 -31 -12 -33 6 -38 20 -5 20 -5 0 -27 -32
-33 -26 -41 27 -37 41 4 45 3 30 -9 -22 -18 -23 -28 -2 -20 14 5 15 3 5 -15
-8 -16 -9 -22 -1 -22 7 0 9 -8 5 -22 -6 -17 -4 -20 10 -14 10 3 24 1 31 -5 10
-8 22 -8 44 -1 16 6 30 8 30 4 0 -9 67 -13 98 -6 14 3 20 9 16 16 -4 7 -3 8 5
4 6 -4 9 -11 6 -16 -9 -15 138 -5 175 12 55 25 93 57 280 237 96 93 193 185
215 205 59 53 345 290 355 294 5 2 11 -6 15 -18 3 -11 11 -18 16 -15 5 3 6 0
4 -7 -7 -16 42 -61 56 -53 5 4 8 3 7 -2 -5 -14 51 -65 62 -58 6 4 9 2 8 -3 -4
-14 113 -122 125 -115 6 3 7 1 4 -4 -8 -13 27 -46 38 -36 4 5 5 3 2 -3 -6 -11
26 -44 44 -44 5 0 8 -4 4 -9 -3 -5 4 -12 15 -16 11 -3 20 -11 20 -17 0 -5 7
-7 16 -4 9 3 12 2 8 -5 -6 -11 35 -46 49 -41 5 1 6 -2 2 -7 -5 -9 48 -56 63
-56 15 0 32 -17 27 -25 -5 -8 32 -34 45 -33 3 1 4 -3 3 -7 -4 -13 73 -71 81
-62 4 4 6 0 4 -8 -2 -9 4 -15 14 -15 9 0 20 -4 25 -9 4 -5 3 -6 -4 -2 -7 4
-13 4 -13 -1 0 -11 72 -59 83 -55 5 1 6 -2 3 -7 -3 -5 2 -15 11 -22 14 -12 16
-12 8 0 -5 10 -4 12 3 7 7 -4 12 -14 12 -22 0 -8 7 -14 16 -14 9 0 12 5 8 12
-4 7 -3 8 5 4 6 -4 9 -11 6 -16 -7 -12 45 -51 58 -43 5 3 7 1 4 -4 -9 -15 19
-36 35 -27 7 4 10 4 6 -1 -8 -9 2 -20 61 -62 24 -18 48 -30 52 -27 5 3 6 -1 4
-8 -5 -13 48 -52 70 -53 6 0 10 -6 10 -14 0 -8 9 -19 19 -25 10 -6 32 -23 48
-39 16 -15 34 -24 40 -21 6 4 9 3 6 -2 -7 -11 17 -35 26 -27 3 4 6 -1 6 -10 0
-15 35 -34 53 -29 5 1 6 -2 3 -6 -7 -12 28 -44 37 -35 4 3 7 -2 7 -11 0 -13 5
-16 17 -12 10 4 14 4 11 0 -10 -9 40 -56 52 -49 6 4 7 -1 3 -11 -5 -13 -3 -16
10 -11 9 3 16 3 14 -1 -4 -14 143 -153 155 -146 6 4 8 3 4 -4 -3 -6 42 -60
104 -124 60 -62 110 -116 110 -120 0 -5 7 -8 15 -8 8 0 15 -5 15 -11 0 -6 19
-32 43 -56 76 -81 87 -94 87 -103 0 -4 3 -10 8 -12 4 -1 27 -28 51 -58 24 -30
51 -62 60 -70 9 -8 27 -31 41 -50 14 -19 34 -45 45 -56 11 -12 36 -41 54 -64
19 -23 41 -48 48 -56 7 -7 13 -16 13 -21 0 -5 9 -15 20 -23 11 -8 20 -18 20
-22 0 -7 37 -52 88 -105 12 -13 22 -27 22 -30 0 -3 14 -19 30 -35 17 -15 30
-33 30 -38 0 -6 5 -10 11 -10 5 0 7 6 3 13 -4 7 -3 9 2 4 5 -5 10 -13 10 -18
1 -5 2 -14 3 -20 0 -5 5 -7 11 -4 5 3 10 -1 10 -10 0 -11 5 -15 15 -12 8 4 17
1 21 -5 4 -7 3 -8 -4 -4 -7 4 -12 3 -12 -2 0 -11 69 -21 114 -18 16 2 47 0 68
-4 21 -4 41 -3 44 1 3 5 10 7 15 3 5 -3 42 -5 81 -5 65 0 126 18 148 42 3 3
16 12 28 21 34 23 154 141 199 195 21 25 43 51 48 57 6 6 23 30 39 54 16 23
33 42 38 42 5 0 7 4 3 9 -3 6 1 13 8 18 14 8 71 93 63 93 -3 0 6 12 19 26 14
15 25 31 25 36 0 5 7 16 15 25 8 8 13 19 10 24 -4 5 -2 9 3 9 9 0 37 50 34 63
-1 4 3 7 8 7 6 0 15 12 20 26 6 15 19 39 30 54 11 15 17 30 13 34 -3 3 -1 6 6
6 7 0 9 5 6 10 -3 6 -3 10 2 10 15 0 30 47 27 81 -7 66 -16 81 -107 178 -51
54 -105 115 -122 134 -16 19 -66 73 -110 119 -111 116 -278 296 -313 338 -36
42 -97 117 -309 377 -88 110 -181 221 -205 248 -108 121 -246 270 -344 371
-18 18 -35 30 -40 26 -4 -4 -4 -2 -1 4 4 7 -43 59 -111 122 -64 61 -145 137
-179 169 -34 32 -81 74 -104 93 -23 19 -47 40 -53 45 -63 56 -126 105 -126 98
0 -4 -5 0 -11 10 -6 9 -14 15 -20 12 -5 -4 -9 1 -9 9 0 9 -4 16 -9 16 -4 0
-25 16 -45 35 -20 19 -45 40 -55 47 -10 7 -38 31 -63 53 -72 63 -121 100 -131
97 -5 -1 -6 2 -3 7 4 5 -8 20 -26 33 -37 26 -73 55 -100 80 -10 10 -21 18 -26
18 -13 0 -33 40 -25 53 4 7 15 18 25 25 10 7 18 20 18 28 0 8 5 14 10 14 6 0
18 16 27 35 9 19 21 35 25 35 5 0 7 4 4 9 -3 5 1 12 10 15 9 3 14 11 12 18 -3
7 5 21 17 33 12 11 32 41 44 68 13 26 27 47 32 47 6 0 9 6 8 13 -2 6 10 39 25
71 16 33 30 67 31 75 2 9 4 18 5 21 1 3 2 8 1 12 0 5 4 8 9 8 6 0 10 6 8 13
-1 6 3 22 10 34 16 30 21 64 11 89 -4 12 -3 26 3 32 6 6 6 12 -3 17 -8 6 -10
4 -4 -5 6 -9 4 -11 -4 -6 -7 5 -10 15 -7 23 3 8 1 11 -4 8 -5 -3 -19 -1 -31 6
-12 6 -37 11 -55 11 -19 0 -34 4 -34 10 0 5 -5 6 -10 3 -6 -3 -10 1 -10 9 0 9
-9 16 -20 16 -10 0 -24 9 -30 20 -8 15 -8 20 1 20 7 0 9 3 6 7 -4 3 -2 12 4
19 16 20 18 74 2 74 -7 0 -10 6 -6 17 4 11 3 14 -5 9 -7 -4 -12 -1 -12 9 0 11
-5 15 -16 11 -10 -4 -13 -2 -8 6 5 8 2 9 -9 5 -9 -3 -22 -1 -29 6 -7 7 -21 12
-30 13 -51 2 -57 5 -52 18 4 10 0 14 -13 12 -10 -2 -26 6 -36 18 -17 19 -19
20 -28 3 -6 -9 -15 -17 -22 -17 -7 0 -6 4 3 10 8 5 11 10 7 10 -5 0 5 12 22
26 17 14 28 30 25 35 -3 5 -1 8 4 7 6 -2 10 0 11 5 3 24 0 37 -11 37 -6 0 -9
-3 -5 -6 5 -6 -45 -64 -55 -64 -3 0 -3 12 -1 28 4 26 3 26 -11 -5 -8 -18 -20
-33 -27 -33 -7 0 -6 8 4 24 15 22 15 25 -2 40 -21 19 -31 20 -31 3 0 -7 -7
-22 -16 -33 -8 -10 -12 -13 -8 -5 5 11 3 13 -9 8 -10 -3 -17 -2 -17 4 0 6 -4
8 -9 5 -5 -4 -11 -1 -13 6 -3 9 -6 9 -12 0 -4 -7 -2 -12 3 -12 6 0 11 -5 11
-11 0 -6 -6 -9 -14 -6 -21 8 -27 -3 -14 -27 9 -17 8 -19 -3 -9 -17 17 -29 16
-29 -1 0 -14 -23 -28 -50 -30 -8 -1 -14 -9 -12 -18 1 -9 -3 -20 -9 -24 -8 -5
-10 -3 -4 7 4 8 -8 -1 -28 -20 -20 -19 -35 -37 -32 -39 4 -4 -49 -52 -57 -52
-3 0 -14 8 -26 18 -18 15 -232 163 -271 187 -9 6 -18 13 -21 16 -7 8 -156 112
-180 125 -11 6 -17 14 -13 17 3 4 1 7 -6 7 -25 0 -165 104 -336 248 -11 9 -23
16 -27 14 -5 -1 -8 4 -8 11 0 7 -9 19 -21 27 -11 8 -68 61 -125 118 -58 56
-109 102 -114 102 -6 0 -10 7 -10 16 0 9 -9 18 -20 21 -10 3 -22 13 -25 22 -2
9 -17 25 -32 36 -31 23 -493 484 -785 785 -179 183 -200 201 -215 189 -16 -12
-17 -12 -6 2 11 13 10 19 -6 33 -11 10 -25 15 -32 10 -8 -5 -10 -3 -4 5 4 8
-4 23 -24 41 -17 16 -31 27 -31 25 0 -2 -27 23 -60 56 -33 32 -60 58 -60 56 0
-2 -29 24 -65 57 -78 74 -92 86 -102 87 -5 0 -13 10 -20 22 -7 12 -12 18 -13
13 0 -5 -8 0 -17 10 -10 11 -36 33 -58 50 -22 16 -45 35 -51 43 -7 8 -16 11
-24 6 -10 -6 -3 -17 25 -42 20 -18 40 -33 44 -33 3 0 22 -15 42 -33 20 -17 51
-44 70 -59 59 -46 82 -68 77 -73 -3 -3 -18 7 -34 22 -16 16 -46 40 -66 55 -20
15 -42 33 -50 40 -7 7 -29 25 -50 40 -20 15 -42 34 -50 41 -7 7 -24 21 -38 31
-23 16 -23 17 -3 12 25 -8 42 12 22 25 -21 12 -71 52 -91 71 -10 10 -21 18
-24 18 -3 0 -11 6 -18 13 -7 6 -33 28 -57 49 -119 98 -94 78 -224 178 -60 47
-115 89 -122 95 -7 5 -25 20 -40 32 -82 66 -168 139 -171 146 -2 4 -10 7 -18
7 -8 0 -14 4 -14 9 0 4 -17 20 -37 34 -21 14 -51 37 -67 51 -16 14 -33 26 -38
26 -5 0 -6 5 -3 10 3 6 1 10 -5 10 -6 0 -17 6 -24 13 -7 6 -66 55 -131 107
-65 52 -138 114 -162 138 -24 23 -46 42 -48 42 -10 0 -469 478 -602 627 -66
74 -98 109 -147 163 -88 96 -217 242 -266 300 -30 36 -67 78 -82 95 -14 16
-35 40 -45 51 -10 12 -38 45 -62 74 -25 29 -50 58 -55 64 -6 6 -31 36 -56 66
-25 30 -52 64 -62 75 -56 69 -191 233 -205 250 -47 58 -284 321 -388 430 -16
18 -93 99 -170 181 -292 310 -1324 1336 -1336 1328 -8 -4 -10 -3 -5 4 4 7 -23
40 -65 79 -40 37 -84 80 -97 95 -14 15 -29 25 -33 22 -5 -3 -9 -1 -9 4 0 5
-111 121 -247 258 -392 394 -474 481 -743 778 -19 21 -51 55 -70 76 -50 54
-221 238 -249 269 -288 314 -681 705 -694 692 -9 -9 12 -41 27 -41 5 0 55 -49
76 -76 8 -10 -5 -3 -30 17 -25 19 -65 47 -90 62 -25 15 -65 43 -90 62 -25 18
-50 34 -57 34 -6 1 -13 5 -15 9 -9 23 -245 161 -408 238 -41 20 -138 67 -215
104 -150 73 -315 146 -417 185 -53 20 -58 23 -30 23 17 -1 32 -4 32 -7 0 -4
12 -8 26 -9 15 -1 33 -7 40 -13 8 -6 14 -9 14 -6 0 3 21 -5 47 -18 25 -13 50
-22 55 -19 4 3 8 0 8 -5 0 -6 3 -10 8 -9 4 1 17 -3 30 -10 12 -7 22 -10 22 -6
0 3 6 1 13 -5 8 -6 17 -8 20 -4 9 9 9 33 0 32 -22 -4 -33 2 -27 14 5 8 2 8 -9
-2 -11 -9 -17 -10 -17 -2 0 6 -7 11 -16 11 -8 0 -13 4 -10 9 7 11 -13 9 -33
-3 -9 -6 -12 -5 -7 2 5 9 -17 22 -44 27 -3 0 -15 6 -28 13 -12 7 -27 10 -32 7
-6 -3 -10 -1 -10 4 0 6 5 11 12 11 6 0 8 3 5 6 -4 4 -13 1 -22 -6 -12 -10 -15
-10 -15 0 0 8 -3 11 -6 7 -3 -3 -16 -2 -29 3 -15 6 -27 4 -35 -3 -10 -9 -11
-9 -6 1 8 14 -5 20 -54 25 -20 2 -40 6 -45 9 -31 17 -156 47 -212 51 -7 0 -13
5 -13 11 0 6 -5 5 -12 -2 -7 -7 -17 -12 -22 -12 -6 0 -4 5 4 10 16 11 19 10
-40 15 -14 1 -32 5 -40 8 -8 4 -35 8 -60 11 -25 2 -45 5 -45 6 0 4 -43 10 -82
12 -22 2 -39 6 -36 11 4 6 -23 11 -69 11 -9 0 -15 3 -12 8 3 4 -9 9 -25 9 -17
1 -34 2 -38 3 -5 1 -31 8 -60 15 -29 7 -57 9 -64 5 -8 -4 -9 -3 -5 4 4 7 1 12
-8 12 -9 0 -15 -5 -13 -11 1 -6 -5 -14 -13 -16 -10 -3 -11 -2 -3 4 12 8 3 36
-11 33 -3 0 -21 2 -39 5 -17 3 -40 7 -49 9 -10 1 -21 5 -24 9 -4 4 -19 0 -33
-10 -24 -15 -25 -15 -12 0 12 15 11 17 -6 17 -10 0 -25 -6 -32 -12 -10 -11
-11 -9 -5 5 5 15 2 17 -20 13 -16 -3 -26 0 -26 7 0 7 -4 6 -10 -3 -6 -10 -10
-11 -10 -2 0 7 -13 12 -29 12 -16 0 -42 5 -56 10 -24 9 -27 8 -21 -7 6 -17 5
-17 -7 -1 -11 14 -16 15 -27 5 -8 -8 -11 -8 -6 -1 7 14 -83 24 -91 11 -3 -4
-10 -4 -17 2 -6 5 -25 10 -41 10 -17 1 -41 2 -55 4 -14 2 -31 -2 -39 -7 -11
-8 -13 -8 -7 2 5 9 -9 12 -58 12 -36 0 -66 4 -66 8 0 5 -9 13 -21 18 -20 9
-20 10 -3 24 11 9 15 10 10 3 -5 -9 0 -13 14 -13 12 0 18 5 15 10 -4 6 8 10
29 10 19 0 38 5 42 12 5 8 10 6 15 -8 7 -17 8 -17 8 -1 1 9 6 17 12 17 5 0 8
4 5 9 -3 5 -53 9 -111 10 -80 1 -105 -1 -105 -11 0 -8 -3 -9 -8 -3 -10 14 -56
15 -64 1 -5 -7 -8 -7 -8 0 0 16 -30 13 -40 -5z m-231 -140 c-35 -30 -49 -25
-15 5 15 14 31 23 34 20 2 -3 -6 -14 -19 -25z m894 -28 c-7 -2 -19 -2 -25 0
-7 3 -2 5 12 5 14 0 19 -2 13 -5z m44 -9 c-3 -3 -12 -4 -19 -1 -8 3 -5 6 6 6
11 1 17 -2 13 -5z m244 -11 c13 -16 12 -17 -3 -4 -17 13 -22 21 -14 21 2 0 10
-8 17 -17z m-112 -14 c12 -8 10 -8 -8 -3 -13 3 -30 7 -37 8 -7 1 -16 5 -20 9
-10 9 47 -3 65 -14z m74 -16 c-7 -2 -19 -2 -25 0 -7 3 -2 5 12 5 14 0 19 -2
13 -5z m82 -13 l20 -9 -20 1 c-11 0 -31 4 -45 8 l-25 8 25 0 c14 0 34 -3 45
-8z m59 -19 c4 -5 -3 -7 -14 -4 -23 6 -26 13 -6 13 8 0 17 -4 20 -9z m49 -8
c-7 -2 -19 -2 -25 0 -7 3 -2 5 12 5 14 0 19 -2 13 -5z m67 -13 c20 -6 21 -8 5
-8 -11 0 -29 3 -40 8 -25 11 1 11 35 0z m90 -20 c20 -6 21 -8 5 -8 -11 0 -31
4 -45 8 -20 6 -21 8 -5 8 11 0 31 -4 45 -8z m143 -27 c-7 -2 -21 -2 -30 0 -10
3 -4 5 12 5 17 0 24 -2 18 -5z m62 -13 c3 -6 -1 -7 -9 -4 -18 7 -21 14 -7 14
6 0 13 -4 16 -10z m45 -4 c0 -3 -4 -8 -10 -11 -5 -3 -10 -1 -10 4 0 6 5 11 10
11 6 0 10 -2 10 -4z m74 -15 c19 -7 19 -8 -2 -13 -12 -4 -20 -2 -17 2 3 5 -5
11 -17 13 -19 4 -20 4 -3 5 11 0 29 -3 39 -7z m194 -13 c18 -1 32 -6 32 -10 0
-5 -12 -6 -27 -2 -47 10 -53 13 -53 26 0 10 2 10 8 1 4 -7 22 -13 40 -15z
m-141 -4 c-3 -3 -12 -4 -19 -1 -8 3 -5 6 6 6 11 1 17 -2 13 -5z m86 -19 c24
-8 61 -19 83 -24 21 -5 30 -9 18 -10 -11 -1 -56 10 -100 23 -43 14 -71 25 -62
25 10 1 37 -6 61 -14z m227 -25 c0 -5 -7 -7 -15 -4 -8 4 -15 8 -15 10 0 2 7 4
15 4 8 0 15 -4 15 -10z m-62 -16 c12 -4 22 -10 22 -16 0 -5 -9 -4 -21 2 -11 7
-27 9 -35 6 -9 -3 -12 -1 -9 4 7 12 12 12 43 4z m152 -51 c36 -14 98 -41 138
-59 41 -19 75 -34 76 -34 6 0 360 -170 431 -207 115 -59 179 -95 190 -106 6
-5 -38 16 -98 47 -59 31 -113 54 -119 50 -7 -4 -8 -3 -4 5 5 7 -6 17 -31 27
-34 14 -77 33 -180 81 -18 8 -37 11 -44 7 -8 -4 -9 -3 -5 4 4 6 -6 18 -23 27
-34 17 -55 20 -46 5 4 -6 -10 -3 -29 7 -20 9 -34 18 -32 21 2 2 14 -2 26 -8
12 -6 24 -9 27 -6 4 3 -16 15 -43 27 -27 12 -77 34 -111 49 -46 21 -64 25 -74
16 -9 -8 -10 -8 -5 1 7 13 -23 29 -114 63 -30 11 -41 18 -25 14 17 -3 59 -17
95 -31z m-1645 3 c17 -3 75 -13 130 -22 84 -13 146 -26 340 -69 61 -14 294
-61 475 -96 91 -17 176 -36 190 -41 14 -6 78 -23 143 -39 114 -29 231 -71 312
-112 22 -11 40 -19 40 -18 0 4 119 -50 220 -100 54 -27 105 -49 111 -49 7 0
14 -3 16 -7 4 -11 124 -66 142 -66 8 0 13 -4 10 -8 -2 -4 6 -13 18 -20 13 -7
23 -11 23 -10 0 4 40 -12 45 -18 13 -16 52 -31 62 -25 6 4 8 3 4 -4 -4 -6 9
-18 31 -29 21 -9 44 -23 51 -30 13 -12 27 -17 45 -14 4 0 6 -4 5 -9 -2 -6 11
-18 27 -28 17 -9 31 -20 33 -24 2 -4 21 -18 43 -30 21 -12 39 -26 39 -30 0 -5
5 -6 10 -3 6 4 9 3 8 -2 -4 -13 72 -84 83 -77 5 3 9 2 8 -3 -4 -23 2 -35 17
-29 8 3 13 2 9 -3 -3 -5 6 -18 20 -29 14 -11 25 -23 25 -27 0 -11 28 -35 41
-35 7 0 10 -3 6 -6 -8 -8 18 -34 34 -34 7 0 10 -3 6 -6 -6 -7 60 -74 74 -74 5
0 9 -7 9 -16 0 -10 5 -14 16 -10 8 3 12 2 9 -4 -3 -5 21 -35 52 -67 32 -33 85
-89 117 -126 33 -36 64 -63 69 -60 6 3 7 2 4 -4 -3 -5 30 -47 73 -93 44 -46
80 -86 80 -90 0 -4 11 -13 25 -20 13 -7 23 -16 22 -19 -2 -6 40 -53 141 -160
24 -25 48 -54 53 -64 6 -10 15 -14 21 -11 6 4 8 3 5 -4 -4 -5 6 -21 22 -34 16
-14 34 -34 40 -47 7 -12 16 -19 22 -16 5 4 8 3 7 -2 -6 -16 269 -300 286 -295
6 2 8 0 4 -4 -4 -4 17 -31 47 -61 30 -31 55 -57 55 -59 0 -9 45 -49 52 -47 5
2 8 -2 8 -7 0 -16 187 -200 195 -192 4 4 5 2 3 -3 -3 -11 148 -166 155 -159 2
2 10 -7 17 -21 7 -14 17 -25 22 -25 5 0 29 -22 55 -50 25 -27 51 -48 56 -47 6
1 11 -3 12 -9 0 -16 80 -94 95 -94 7 0 10 -3 7 -6 -7 -7 42 -54 56 -54 4 0 7
-6 7 -14 0 -8 9 -18 20 -21 11 -3 20 -13 20 -21 0 -8 4 -14 9 -14 5 0 80 -71
166 -157 87 -87 162 -157 167 -155 5 1 7 -2 4 -7 -7 -10 18 -33 27 -26 4 3 5
2 2 -2 -8 -11 37 -53 49 -46 6 3 8 3 4 -1 -8 -10 54 -75 65 -69 4 3 6 1 5 -4
-2 -5 70 -82 160 -173 89 -90 162 -167 162 -171 0 -4 9 -11 20 -14 11 -3 20
-10 20 -14 0 -16 93 -101 103 -94 6 3 7 1 3 -5 -8 -13 33 -54 47 -45 6 3 7 1
3 -5 -7 -12 38 -62 55 -62 5 0 8 -3 7 -8 -2 -4 39 -50 90 -102 50 -51 92 -95
92 -97 0 -3 86 -95 110 -118 6 -5 21 -21 33 -34 12 -14 39 -42 60 -64 20 -21
37 -40 37 -43 0 -2 8 -12 17 -22 42 -43 103 -114 103 -118 0 -3 6 -11 13 -18
7 -8 29 -33 48 -56 18 -23 39 -47 44 -54 6 -6 23 -27 38 -46 67 -83 103 -126
124 -147 12 -13 20 -23 18 -23 -3 0 3 -8 13 -18 18 -20 48 -55 127 -147 28
-33 60 -69 72 -82 12 -12 28 -31 36 -43 8 -11 36 -45 63 -76 27 -31 58 -66 69
-79 11 -12 52 -58 92 -101 134 -147 143 -158 143 -167 0 -4 3 -6 8 -4 4 3 13
-1 20 -9 7 -8 10 -14 7 -14 -3 0 15 -21 40 -47 25 -26 45 -51 45 -56 0 -4 5
-5 12 -1 6 4 8 3 5 -3 -3 -5 34 -51 82 -101 48 -51 86 -92 85 -92 -1 0 43 -47
99 -104 56 -58 131 -136 167 -174 36 -39 70 -67 75 -64 6 3 7 1 2 -3 -10 -12
33 -56 47 -48 6 3 8 2 3 -2 -9 -11 33 -56 45 -49 5 3 7 1 6 -5 -4 -15 182
-192 194 -185 6 4 8 2 4 -4 -9 -15 63 -72 83 -65 13 4 13 3 2 -5 -11 -8 -9
-12 10 -23 13 -7 27 -12 32 -11 4 1 6 -4 5 -10 -2 -7 5 -12 14 -12 10 1 14 -4
11 -12 -3 -8 0 -14 6 -14 6 0 20 -9 31 -20 12 -12 26 -18 32 -14 6 4 8 3 5 -3
-3 -5 3 -17 14 -26 10 -9 19 -14 19 -10 0 3 10 -6 23 -20 12 -15 26 -27 30
-27 7 0 19 -10 79 -66 9 -9 22 -13 28 -9 6 4 9 1 8 -7 -2 -7 3 -12 10 -10 8 1
11 -2 7 -8 -3 -5 1 -13 10 -16 9 -4 37 -26 62 -51 34 -32 48 -40 55 -31 6 10
8 10 8 -2 0 -22 47 -63 61 -54 7 4 9 3 6 -3 -9 -15 29 -47 45 -37 7 4 10 4 6
0 -13 -15 83 -92 96 -78 4 4 6 0 4 -8 -2 -9 4 -14 14 -14 10 1 16 -3 15 -10
-1 -6 4 -10 11 -8 6 1 11 -4 10 -10 -2 -7 5 -12 15 -12 10 1 16 0 13 -3 -7 -7
26 -43 40 -43 7 0 15 -7 18 -16 4 -9 13 -14 22 -10 8 3 13 2 10 -3 -8 -12 55
-62 67 -54 6 3 7 1 4 -4 -4 -6 0 -16 8 -23 8 -7 15 -10 15 -7 0 3 11 -5 25
-19 14 -14 30 -22 35 -19 6 4 7 -1 3 -11 -5 -13 -3 -16 10 -11 10 4 16 2 14
-6 -1 -7 4 -11 11 -9 6 1 12 -3 12 -9 0 -5 5 -7 12 -3 6 4 8 3 5 -3 -9 -14 19
-37 34 -27 7 4 9 3 5 -4 -7 -12 33 -54 44 -47 5 3 11 -2 14 -11 3 -9 11 -12
18 -8 7 4 10 4 6 -1 -11 -11 20 -37 34 -29 7 4 10 3 5 -1 -10 -12 23 -46 37
-38 6 3 8 3 4 -2 -9 -10 32 -41 47 -37 5 2 7 1 3 -3 -8 -9 23 -45 39 -45 7 0
13 -7 13 -16 0 -8 4 -13 8 -10 5 3 16 -6 26 -19 10 -14 24 -22 30 -18 6 3 8 3
4 -1 -8 -9 23 -47 33 -40 4 2 10 -5 14 -16 3 -11 11 -20 16 -20 6 0 21 -12 34
-26 13 -14 29 -23 34 -19 7 3 8 0 5 -9 -6 -14 5 -21 28 -17 4 0 5 -6 2 -14 -4
-9 0 -15 8 -15 7 0 19 -9 26 -20 7 -12 18 -18 25 -14 7 4 9 4 5 0 -10 -11 42
-57 56 -49 6 3 8 2 3 -2 -10 -11 33 -56 46 -48 6 3 7 2 4 -4 -4 -5 4 -19 16
-30 12 -11 34 -33 49 -49 15 -16 32 -33 38 -39 53 -51 170 -179 170 -187 0 -5
4 -7 8 -4 4 2 17 -9 27 -25 11 -16 26 -29 34 -29 8 0 12 -3 8 -6 -10 -10 22
-36 34 -28 7 4 9 3 6 -3 -9 -14 49 -77 63 -68 6 3 10 3 9 -2 -4 -21 2 -33 17
-33 8 0 13 -3 11 -7 -5 -10 50 -63 57 -55 3 3 6 0 6 -7 0 -16 66 -81 74 -73 3
3 6 0 6 -7 0 -13 50 -66 51 -54 0 4 5 -3 10 -16 6 -15 14 -21 25 -17 8 3 12 2
9 -4 -3 -5 3 -17 13 -27 49 -47 81 -71 87 -65 4 4 5 2 3 -5 -4 -13 87 -103
104 -103 6 0 9 -3 5 -6 -10 -10 22 -36 34 -28 8 4 9 3 5 -4 -8 -14 31 -55 45
-47 5 4 9 3 8 -2 -4 -21 2 -33 17 -33 8 0 12 -4 9 -10 -6 -10 9 -15 30 -10 5
1 7 -1 3 -5 -9 -10 33 -55 45 -48 6 3 7 1 4 -4 -7 -12 16 -36 26 -28 4 3 5 2
3 -1 -7 -9 58 -74 73 -74 7 0 9 -4 6 -10 -3 -5 -1 -10 5 -10 5 0 24 -13 41
-30 17 -16 36 -28 42 -27 6 1 11 -4 12 -12 0 -8 9 -19 19 -25 11 -6 33 -23 49
-38 16 -15 34 -25 39 -22 4 3 7 0 6 -7 -2 -6 3 -14 11 -17 9 -3 11 0 6 8 -5 8
-4 11 3 6 6 -4 9 -13 5 -21 -3 -8 0 -15 6 -15 7 0 28 -11 48 -25 20 -13 40
-22 45 -19 5 3 7 0 6 -8 -2 -7 3 -12 10 -11 6 2 12 -1 12 -7 0 -11 60 -45 73
-42 5 1 6 -2 2 -8 -3 -5 2 -13 12 -17 10 -4 24 -13 31 -20 8 -7 18 -10 24 -7
7 5 8 2 3 -6 -6 -10 -4 -12 8 -7 12 4 14 2 10 -10 -5 -13 -2 -15 12 -9 11 4
16 4 12 0 -9 -10 55 -56 70 -50 8 3 10 -1 6 -11 -4 -10 -2 -14 4 -10 6 4 13 0
17 -8 3 -8 10 -15 16 -15 6 0 8 6 4 13 -4 7 -3 9 2 4 5 -5 8 -11 6 -14 -6 -9
42 -44 54 -39 7 3 16 -4 19 -15 4 -13 12 -18 21 -15 10 4 12 2 8 -6 -5 -8 -2
-9 10 -5 9 4 15 3 11 -2 -6 -10 46 -51 64 -51 6 0 11 -9 11 -21 0 -13 -4 -18
-12 -13 -8 5 -9 2 -5 -10 4 -9 3 -15 -2 -12 -12 8 -44 -31 -36 -43 4 -7 0 -8
-11 -4 -14 5 -16 3 -11 -11 4 -9 3 -15 -2 -11 -12 7 -53 -50 -43 -60 4 -5 2
-5 -4 -2 -9 5 -58 -38 -59 -53 0 -3 -13 -17 -28 -33 -16 -15 -25 -32 -21 -39
4 -7 3 -8 -4 -4 -7 4 -12 1 -12 -6 0 -17 -19 6 -152 192 -61 85 -128 178 -149
205 -21 28 -42 55 -46 60 -58 75 -78 101 -83 105 -3 3 -35 41 -70 85 -36 44
-69 85 -75 91 -5 6 -35 40 -65 75 -30 35 -62 70 -70 79 -8 9 -28 31 -44 50
-15 19 -60 71 -100 115 -144 161 -172 192 -236 265 -36 41 -91 102 -123 135
-32 33 -77 82 -100 110 -44 52 -98 105 -107 105 -3 0 -11 -9 -17 -20 -11 -16
-10 -18 2 -14 11 5 13 2 9 -9 -6 -16 -34 -12 -34 4 0 5 -9 9 -20 9 -11 0 -20
5 -20 12 0 6 -3 8 -7 5 -3 -4 -14 0 -24 9 -11 10 -19 12 -24 5 -3 -6 -1 -11 6
-11 8 0 8 -4 -1 -15 -7 -8 -8 -15 -3 -15 5 0 10 -7 10 -15 0 -13 -3 -13 -16
-1 -9 7 -27 17 -40 21 -20 6 -23 4 -18 -9 4 -9 1 -15 -6 -13 -7 1 -11 -5 -11
-14 1 -12 -5 -16 -22 -14 -15 1 -24 -3 -24 -12 0 -8 4 -12 9 -8 5 3 12 1 15
-4 8 -12 -37 -8 -46 4 -5 6 -12 5 -20 -4 -11 -12 -10 -12 2 -6 12 7 13 6 3 -6
-6 -8 -10 -27 -9 -42 3 -26 -4 -34 -18 -20 -3 4 -15 8 -25 10 -19 3 -23 -18
-8 -33 10 -10 9 -26 -1 -20 -5 3 -9 -1 -9 -9 0 -8 5 -12 11 -9 6 3 3 -1 -7 -9
-17 -14 -17 -15 0 -21 15 -6 15 -8 3 -16 -13 -8 -8 -14 11 -12 3 1 6 -5 6 -13
0 -8 -4 -12 -9 -9 -4 3 -8 0 -8 -5 0 -6 4 -11 9 -11 5 0 7 -9 4 -20 -3 -11 -1
-20 5 -20 6 0 9 -9 7 -20 -2 -11 0 -20 6 -20 5 0 8 -3 8 -7 -3 -19 2 -34 9
-29 4 2 9 -5 9 -17 2 -15 0 -18 -6 -8 -5 8 -11 9 -15 3 -3 -5 1 -13 10 -16 9
-4 14 -13 10 -21 -3 -8 -2 -15 3 -15 5 0 7 -11 6 -25 -2 -16 4 -31 18 -41 13
-9 15 -14 6 -11 -12 4 -15 0 -11 -19 2 -13 8 -24 12 -24 4 0 7 -8 7 -17 0 -51
4 -64 15 -57 10 5 10 4 1 -6 -8 -9 -9 -19 -2 -32 5 -10 9 -24 8 -31 -3 -23 1
-38 9 -33 4 2 7 -11 7 -30 -1 -19 2 -34 6 -34 5 0 5 -7 2 -17 -5 -12 -3 -14 7
-8 9 6 11 4 6 -4 -8 -12 -19 -6 -67 39 -48 44 -574 558 -588 574 -9 10 -29 30
-45 45 -44 40 -303 301 -376 378 -97 103 -262 283 -301 328 -19 21 -41 46 -49
55 -27 29 -166 187 -275 315 -27 32 -55 63 -60 69 -6 6 -40 47 -75 91 -82 101
-90 111 -118 143 -12 15 -86 107 -163 205 -115 146 -138 181 -128 193 6 8 17
14 24 14 6 0 25 11 41 25 16 14 33 25 38 25 9 0 2 94 -10 125 -16 41 -94 140
-188 240 -15 16 -47 52 -70 79 -22 27 -52 60 -66 75 -92 94 -520 598 -755 887
-22 27 -65 74 -95 104 -30 30 -66 70 -80 87 -14 18 -31 32 -38 33 -7 0 -11 4
-7 10 8 14 -89 98 -116 100 -3 0 -6 -7 -6 -15 0 -8 5 -15 10 -15 6 0 7 -3 4
-7 -4 -3 0 -17 9 -31 9 -13 11 -21 5 -18 -18 12 -12 -6 11 -33 19 -21 17 -20
-10 3 -17 17 -31 37 -30 45 2 9 -3 15 -10 13 -8 -1 -11 2 -7 8 3 5 -2 13 -12
16 -10 3 -32 12 -50 19 l-32 14 3 -34 4 -34 -36 19 -36 20 -15 -33 c-12 -24
-21 -32 -36 -29 l-20 4 20 -23 c11 -13 13 -18 4 -11 -9 6 -19 9 -22 5 -4 -3
-18 -7 -31 -9 -20 -2 -65 39 -248 225 -198 203 -443 459 -488 511 -9 11 -63
69 -121 131 -57 61 -108 117 -114 123 -5 6 -51 56 -101 111 -50 55 -106 117
-125 139 -19 21 -45 51 -59 66 -14 15 -47 53 -75 86 -100 116 -198 229 -214
246 -9 9 -21 23 -26 30 -30 38 -471 569 -805 968 -55 66 -287 349 -318 388
-15 19 -39 48 -53 66 -64 75 -294 359 -379 466 -44 56 -146 169 -267 297 -17
18 -28 33 -25 33 9 0 -21 20 -30 20 -15 0 -8 -26 18 -63 15 -23 30 -35 37 -31
7 4 9 4 5 -1 -4 -4 2 -24 14 -43 l21 -34 -22 14 c-12 7 -24 21 -27 31 -4 14
-9 15 -19 7 -16 -13 -31 5 -27 33 2 11 -3 17 -14 17 -10 0 -15 3 -11 6 9 10
-19 34 -40 34 -10 0 -27 7 -37 15 -25 19 -42 19 -26 0 6 -8 9 -19 6 -24 -4 -5
4 -17 16 -25 12 -9 17 -16 9 -16 -7 0 -25 8 -39 19 -33 23 -72 35 -72 23 0 -5
10 -21 21 -36 12 -15 19 -30 15 -33 -3 -4 -6 -1 -6 6 0 7 -5 9 -12 5 -6 -4 -8
-3 -5 2 3 6 -3 15 -13 21 -15 10 -17 9 -13 -6 4 -15 0 -18 -24 -14 -26 4 -27
3 -10 -10 24 -20 6 -31 -19 -12 -10 8 -22 15 -25 15 -8 0 -5 -33 6 -49 5 -9 4
-12 -2 -8 -6 4 -14 0 -17 -9 -3 -8 -2 -13 2 -10 4 2 8 -4 9 -14 2 -19 1 -19
-20 0 -27 26 -47 26 -40 0 3 -10 10 -18 15 -17 6 1 12 -8 14 -20 3 -17 0 -20
-16 -16 -27 7 -25 -9 5 -41 14 -15 25 -32 25 -37 0 -6 4 -8 9 -4 5 3 13 0 17
-6 4 -8 3 -9 -4 -5 -7 4 -12 2 -12 -3 0 -6 5 -11 10 -11 6 0 15 -11 20 -25 5
-14 14 -25 20 -25 6 0 8 -4 5 -10 -3 -5 -1 -10 5 -10 6 0 8 -5 5 -10 -3 -6 1
-13 9 -16 9 -3 13 -10 10 -15 -3 -5 0 -9 6 -9 6 0 8 -4 5 -10 -3 -5 -1 -10 4
-10 6 0 11 -7 11 -15 0 -8 5 -15 11 -15 5 0 17 -16 25 -35 8 -20 21 -38 29
-41 8 -4 13 -10 10 -14 -7 -11 31 -51 41 -42 4 4 3 0 -4 -9 -9 -13 -6 -20 17
-40 16 -13 26 -30 24 -36 -3 -7 0 -13 6 -13 6 0 19 -18 29 -40 10 -22 22 -37
26 -33 4 5 6 1 4 -7 -2 -8 3 -14 10 -12 8 1 10 -2 7 -8 -4 -6 1 -21 11 -33 26
-33 -94 91 -246 254 -228 244 -620 630 -632 623 -6 -4 -8 -3 -5 3 3 5 -26 41
-66 79 -40 38 -103 108 -141 154 -38 47 -99 119 -137 160 -37 41 -77 86 -89
100 -46 53 -227 245 -259 274 -19 17 -46 44 -60 59 -14 16 -31 25 -39 22 -12
-4 -13 -3 -2 10 10 12 10 15 -1 15 -8 0 -20 9 -27 21 -8 12 -19 18 -28 15 -9
-4 -12 -2 -8 5 7 12 -30 51 -40 42 -3 -4 -6 0 -6 8 -1 8 -15 25 -32 39 -17 14
-49 42 -71 62 -22 21 -58 52 -79 70 -22 18 -51 43 -64 56 -13 13 -24 21 -24
18 0 -2 -15 10 -33 27 -18 18 -68 64 -111 102 -44 39 -87 79 -98 89 -10 11
-18 17 -18 14 0 -4 -20 13 -44 35 -40 39 -75 69 -159 137 -17 14 -38 33 -46
43 -9 9 -19 17 -24 17 -4 0 -18 12 -31 27 -24 28 -61 27 -50 -2 3 -8 11 -12
16 -9 6 4 20 -5 33 -20 12 -14 25 -23 29 -19 5 6 10 -12 7 -29 0 -5 2 -7 7 -7
20 3 33 -2 27 -11 -4 -6 -1 -9 7 -8 7 2 12 -2 11 -9 -2 -7 4 -10 12 -7 9 4 15
0 15 -10 0 -9 -2 -16 -5 -16 -10 0 -61 26 -73 37 -8 7 -18 11 -23 7 -5 -3 -9
-2 -8 3 5 27 -15 44 -56 48 -5 0 -9 6 -8 12 2 7 -11 20 -27 30 -39 22 -38 34
1 31 20 -2 34 2 37 11 3 8 0 11 -7 7 -6 -4 -11 -4 -11 1 0 4 -16 13 -34 19
-19 6 -34 8 -34 5 1 -3 -2 -14 -6 -23 -7 -16 -11 -16 -44 -3 -28 12 -37 13
-44 3 -6 -10 -8 -10 -8 0 0 8 -6 12 -12 9 -7 -2 -12 -12 -10 -21 3 -14 0 -16
-14 -8 -11 6 -27 6 -40 2 -12 -5 -26 -6 -30 -2 -5 4 -2 -2 6 -12 10 -13 10
-17 3 -12 -8 4 -13 2 -13 -6 0 -7 -9 -19 -21 -26 -14 -9 -19 -10 -14 -2 5 9 2
9 -11 2 -11 -5 -26 -12 -34 -16 -8 -3 -5 -4 7 -2 13 2 26 0 29 -5 3 -5 -6 -9
-20 -9 -16 0 -26 -6 -26 -15 0 -8 -4 -15 -9 -15 -5 0 -14 7 -21 15 -7 8 -19
15 -26 15 -8 0 -14 5 -14 10 0 6 -7 10 -15 10 -9 0 -24 8 -35 18 -10 9 -41 28
-67 42 -26 13 -50 27 -53 30 -10 10 -106 66 -138 81 -17 7 -32 18 -32 22 0 5
-3 6 -7 4 -5 -3 -14 1 -20 9 -8 8 -9 15 -3 19 6 4 8 11 5 16 -4 5 -1 9 6 9 7
0 10 3 6 6 -3 4 0 19 9 35 8 16 11 29 7 29 -5 0 -1 5 7 11 14 10 168 7 235 -5z
m1615 -16 c8 -5 11 -10 5 -10 -5 0 -17 5 -25 10 -8 5 -10 10 -5 10 6 0 17 -5
25 -10z m178 -75 c34 -15 61 -30 59 -32 -3 -2 -38 12 -78 32 -85 40 -74 40 19
0z m-2031 -79 c18 -9 36 -16 39 -15 4 0 10 -3 13 -8 9 -12 111 -73 122 -73 5
0 9 -4 9 -10 0 -5 6 -10 14 -10 8 0 22 -8 32 -17 10 -10 18 -16 18 -14 1 3 21
-9 46 -24 25 -16 49 -29 54 -30 5 0 11 -5 13 -11 7 -21 -28 -24 -55 -5 -39 26
-163 101 -170 101 -3 0 -20 11 -39 26 -18 14 -33 21 -33 17 0 -4 -4 -3 -8 2
-4 6 -17 16 -29 23 -13 6 -33 18 -45 25 -30 16 -37 27 -31 44 3 8 9 10 12 5 3
-5 21 -17 38 -26z m748 -74 c-3 -3 -11 0 -18 7 -9 10 -8 11 6 5 10 -3 15 -9
12 -12z m-49 -44 l19 -21 -30 18 c-41 26 -40 25 -23 25 8 0 23 -10 34 -22z
m-1365 -30 c-10 -11 -11 -9 -5 6 6 15 4 17 -6 11 -9 -6 -11 -4 -5 4 5 9 10 10
18 2 8 -8 7 -14 -2 -23z m1399 -24 c0 -10 -64 26 -72 40 -7 12 2 10 31 -10 23
-14 41 -28 41 -30z m95 -14 c3 -6 -1 -7 -9 -4 -18 7 -21 14 -7 14 6 0 13 -4
16 -10z m-426 -69 c7 -5 9 -11 4 -14 -4 -3 -17 1 -28 9 -21 16 0 20 24 5z
m621 -42 c25 -22 38 -37 30 -33 -8 5 -28 20 -44 34 -16 14 -32 24 -37 23 -5
-2 -9 2 -9 7 0 18 14 10 60 -31z m150 -131 c0 -4 -19 11 -42 32 -24 22 -46 40
-50 40 -5 0 -8 5 -8 11 0 5 22 -9 50 -33 27 -24 50 -46 50 -50z m63 -57 c-2
-3 -16 8 -31 24 l-27 28 31 -24 c17 -13 30 -26 27 -28z m122 -101 c3 -6 -1 -7
-9 -4 -18 7 -21 14 -7 14 6 0 13 -4 16 -10z m-1028 -104 c13 -6 23 -14 23 -18
0 -5 7 -8 15 -8 8 0 15 -4 15 -10 0 -5 9 -10 21 -10 11 0 18 -4 15 -9 -3 -5 4
-11 17 -15 12 -3 22 -5 22 -4 0 1 13 -10 29 -25 15 -14 41 -32 57 -39 16 -7
29 -17 29 -22 0 -4 7 -5 16 -2 8 3 13 2 10 -3 -6 -10 41 -44 61 -44 7 0 10 -4
8 -8 -4 -6 14 -17 30 -19 2 0 16 -12 30 -26 14 -14 30 -22 37 -18 6 4 8 3 5
-3 -7 -10 20 -28 36 -25 4 1 7 -4 7 -12 0 -16 27 -29 41 -20 5 3 8 0 7 -8 -2
-7 5 -12 14 -12 10 1 16 -2 13 -6 -3 -4 14 -20 38 -36 23 -16 48 -35 55 -42 8
-7 18 -9 24 -6 7 4 8 2 4 -4 -4 -6 4 -16 16 -23 12 -7 28 -17 34 -23 24 -23
54 -46 60 -46 3 0 12 -7 21 -15 8 -8 19 -12 25 -9 7 4 8 2 4 -4 -7 -12 28 -35
38 -24 4 3 4 -1 0 -11 -3 -10 -1 -17 5 -17 17 0 22 -3 60 -38 21 -19 42 -30
50 -27 9 3 12 3 8 -1 -9 -10 13 -35 24 -28 5 3 8 0 7 -7 -2 -6 3 -14 11 -17 9
-3 11 0 6 9 -5 8 -4 11 1 6 5 -5 9 -12 9 -16 0 -4 8 -15 18 -25 9 -10 17 -15
17 -11 0 3 11 -5 24 -19 13 -15 28 -26 35 -26 6 0 21 -11 33 -25 11 -13 26
-21 32 -18 6 3 8 3 4 -2 -7 -7 14 -35 27 -35 3 0 17 -11 31 -25 14 -14 30 -23
35 -19 5 3 8 1 7 -4 -4 -13 42 -53 54 -46 4 3 7 2 6 -3 -1 -4 6 -18 17 -30 14
-17 21 -19 27 -10 6 9 8 8 8 -3 0 -18 35 -51 44 -43 3 4 6 -1 6 -10 0 -10 4
-17 9 -17 4 0 21 -11 37 -25 51 -45 58 -50 66 -47 5 1 8 -5 8 -14 0 -10 5 -14
16 -10 8 3 13 2 10 -3 -3 -4 6 -14 19 -21 14 -7 25 -17 25 -21 0 -4 24 -13 53
-20 28 -6 61 -18 73 -26 11 -7 24 -10 28 -6 4 5 7 3 6 -2 -5 -22 1 -35 16 -35
8 0 12 -4 9 -10 -3 -5 -2 -10 4 -10 6 0 35 -25 66 -55 31 -31 60 -53 65 -50 6
3 7 -1 4 -9 -4 -11 0 -16 10 -16 9 0 16 -6 16 -13 0 -13 40 -43 53 -39 5 1 6
-1 3 -6 -3 -5 15 -28 39 -51 25 -24 45 -48 45 -54 0 -7 5 -5 10 3 8 13 10 12
10 -3 0 -10 5 -15 10 -12 6 4 10 3 9 -2 -3 -20 2 -34 11 -28 6 3 10 1 10 -5 0
-6 6 -8 13 -4 6 4 9 3 4 -1 -10 -11 63 -86 76 -78 6 3 7 1 4 -4 -4 -6 20 -36
52 -67 33 -31 58 -56 55 -56 -2 0 25 -30 61 -66 36 -37 65 -70 65 -75 0 -5 6
-9 14 -9 8 0 18 -9 21 -20 3 -11 14 -20 22 -20 9 0 14 -3 10 -6 -3 -4 16 -30
43 -58 26 -28 58 -62 70 -76 21 -25 127 -141 210 -230 25 -27 72 -79 105 -116
33 -37 71 -79 84 -93 73 -82 173 -194 207 -234 13 -16 28 -26 33 -23 5 3 8 0
7 -8 -1 -13 42 -65 142 -171 28 -31 52 -61 52 -66 0 -5 7 -9 15 -9 8 0 14 -4
12 -9 -3 -12 139 -162 147 -154 3 3 6 -1 6 -10 0 -9 7 -17 16 -17 9 0 12 -5 8
-12 -5 -8 -2 -9 9 -5 9 3 16 3 16 -1 -3 -21 2 -33 13 -30 7 3 21 -6 32 -19 10
-13 21 -22 24 -19 3 3 11 1 18 -5 14 -12 123 -21 254 -21 147 -1 154 1 214 37
53 32 60 34 79 20 12 -8 18 -15 13 -15 -5 0 0 -8 10 -18 10 -9 44 -46 74 -82
30 -36 59 -70 65 -77 5 -6 30 -35 55 -64 25 -29 63 -72 86 -96 23 -24 39 -43
37 -43 -3 0 22 -29 87 -100 14 -15 43 -48 64 -73 22 -25 43 -44 48 -41 5 3 7
1 6 -4 -3 -9 72 -98 162 -193 25 -26 79 -84 120 -130 41 -45 100 -108 131
-141 32 -32 55 -58 53 -58 -2 0 20 -24 49 -53 28 -30 71 -75 95 -101 24 -25
48 -43 54 -40 7 4 8 2 4 -5 -8 -13 18 -44 29 -33 4 4 5 2 3 -4 -1 -7 23 -37
54 -68 31 -31 54 -56 50 -56 -4 0 7 -9 23 -20 17 -11 27 -20 23 -20 -3 0 53
-60 125 -134 73 -73 135 -131 140 -129 4 3 6 1 5 -4 -4 -12 69 -83 77 -75 4 4
5 2 3 -3 -4 -12 96 -115 112 -115 6 0 9 -3 7 -7 -2 -5 4 -16 15 -25 10 -10 18
-15 18 -12 0 4 9 -5 21 -20 11 -14 25 -23 31 -20 6 4 8 3 5 -3 -8 -12 38 -54
49 -45 4 4 4 2 1 -4 -7 -13 52 -66 64 -58 5 3 6 -3 2 -13 -3 -10 -2 -15 2 -11
5 5 15 -1 22 -12 8 -11 19 -18 24 -14 5 3 8 1 7 -3 -3 -9 48 -61 136 -141 20
-18 36 -29 36 -25 0 5 10 -7 21 -24 12 -18 26 -33 33 -33 6 0 18 -9 26 -19 7
-11 18 -17 23 -14 6 3 7 1 4 -4 -4 -6 5 -19 19 -29 14 -11 41 -33 59 -51 18
-18 36 -29 40 -25 5 4 5 2 2 -4 -8 -13 14 -34 38 -38 8 -1 16 -6 16 -12 1 -17
21 -34 33 -27 6 3 8 3 4 -1 -9 -11 14 -36 26 -28 5 3 6 1 3 -5 -5 -8 25 -43
38 -43 8 0 128 -124 150 -154 11 -15 30 -40 43 -54 12 -15 34 -46 49 -69 15
-24 31 -43 35 -43 4 0 8 -7 8 -15 0 -8 5 -15 10 -15 6 0 10 -7 10 -16 0 -8 4
-12 10 -9 5 3 10 -1 10 -9 0 -8 14 -29 30 -46 17 -17 31 -36 33 -43 1 -7 9
-19 17 -27 8 -8 35 -42 60 -75 25 -33 49 -63 55 -67 5 -4 6 -8 2 -8 -4 0 4
-11 18 -25 14 -14 25 -30 25 -36 0 -6 5 -7 10 -4 5 3 10 -1 10 -9 0 -8 10 -26
23 -38 12 -13 33 -39 47 -57 14 -19 31 -40 38 -47 6 -7 12 -15 12 -18 0 -3 10
-16 23 -29 12 -13 29 -32 37 -43 23 -31 144 -178 150 -184 3 -3 25 -30 50 -60
77 -93 83 -99 93 -93 6 3 7 1 3 -5 -4 -6 8 -28 27 -49 19 -21 45 -51 58 -67
13 -15 33 -38 44 -50 18 -20 97 -110 142 -162 32 -38 147 -166 177 -198 16
-17 35 -41 44 -53 8 -13 21 -23 29 -23 8 0 12 -4 9 -9 -3 -5 12 -25 34 -45 22
-20 40 -38 40 -42 0 -3 27 -33 60 -66 33 -34 60 -66 60 -70 0 -5 4 -6 10 -3 5
3 10 -1 10 -9 0 -8 9 -17 20 -21 11 -3 19 -9 17 -13 -3 -10 96 -108 106 -104
5 1 6 -1 3 -6 -7 -11 119 -134 128 -125 4 4 4 0 0 -10 -4 -12 -1 -17 11 -17 9
0 13 -5 10 -10 -3 -6 -1 -10 4 -10 6 0 38 -28 72 -62 34 -35 66 -61 73 -60 6
2 8 1 4 -3 -9 -10 55 -73 67 -67 6 3 7 2 3 -3 -11 -11 12 -36 26 -28 6 3 8 3
4 -1 -8 -9 87 -106 104 -106 6 0 9 -3 5 -6 -7 -7 70 -84 84 -84 6 0 7 -4 4
-10 -3 -6 -2 -10 4 -10 6 0 25 -16 42 -35 18 -19 37 -32 43 -28 6 3 8 3 4 -2
-11 -11 12 -36 25 -28 5 3 7 1 3 -5 -3 -6 5 -19 19 -30 13 -11 21 -22 18 -26
-6 -5 12 -10 29 -7 5 0 7 -2 5 -7 -1 -4 2 -8 8 -9 5 -1 13 -11 17 -23 4 -12
12 -18 18 -15 6 4 9 2 8 -4 -2 -6 20 -32 47 -57 38 -36 42 -41 15 -23 -19 13
-40 28 -46 34 -6 6 -31 27 -54 46 -74 59 -134 109 -163 134 -15 14 -30 25 -33
25 -3 0 -15 10 -28 23 -39 37 -66 57 -77 57 -5 0 -7 5 -4 10 3 6 1 10 -5 10
-6 0 -17 6 -24 13 -36 34 -77 67 -84 67 -4 0 -14 9 -22 20 -8 11 -19 20 -25
20 -6 0 -16 9 -23 20 -7 11 -16 20 -22 20 -5 0 -21 11 -36 25 -15 14 -41 36
-57 48 -16 12 -46 36 -67 52 -21 17 -52 41 -70 55 -17 14 -35 24 -41 22 -5 -1
-9 4 -9 10 0 7 -16 24 -35 37 -19 13 -43 31 -54 40 -52 43 -61 51 -61 47 0 -3
-12 8 -27 22 -16 15 -41 36 -56 47 -16 11 -39 29 -52 40 -34 30 -98 83 -186
155 -24 19 -53 44 -65 55 -13 11 -37 31 -54 45 -18 14 -45 36 -60 50 -16 14
-41 35 -57 47 -15 12 -38 31 -50 42 -12 12 -24 21 -27 21 -3 0 -16 10 -29 23
-40 36 -92 80 -133 112 -21 17 -49 40 -61 52 -13 12 -23 20 -23 18 0 -2 -10 6
-23 18 -51 48 -111 97 -119 97 -4 0 -8 5 -8 10 0 6 -7 10 -16 10 -8 0 -12 5
-9 10 3 6 1 10 -5 10 -6 0 -21 10 -34 23 -39 37 -118 101 -140 114 -12 7 -16
12 -11 13 6 0 -2 8 -16 18 -15 9 -51 40 -81 67 -30 28 -90 82 -133 120 -43 39
-88 81 -101 95 -13 14 -24 21 -24 16 0 -5 -13 8 -30 29 -16 21 -30 35 -30 31
0 -3 -21 14 -47 39 -27 25 -56 53 -66 62 -16 15 -19 16 -28 3 -9 -12 -10 -11
-5 4 4 12 -1 25 -16 38 -52 44 -163 144 -180 162 -10 11 -18 17 -18 14 0 -3
-31 25 -70 63 -38 38 -71 69 -73 69 -6 0 -359 345 -445 435 -83 86 -385 387
-651 649 -90 88 -168 160 -172 158 -5 -1 -8 2 -7 6 2 4 -53 62 -121 128 -68
65 -148 144 -179 174 -30 30 -60 53 -66 52 -6 -2 -8 -1 -4 3 4 4 -23 35 -59
69 -36 33 -87 81 -114 106 -49 47 -79 72 -189 159 -36 28 -72 57 -80 64 -9 7
-42 33 -75 57 -33 25 -61 48 -63 53 -2 4 -10 7 -18 7 -8 0 -14 4 -14 8 0 5
-25 26 -56 48 -30 21 -61 44 -67 50 -7 6 -39 29 -72 53 -33 23 -86 61 -119 84
-32 23 -66 47 -74 52 -9 6 -25 18 -36 28 -11 9 -25 17 -32 17 -7 0 -14 4 -16
8 -3 8 -71 63 -133 107 -16 11 -34 26 -41 33 -7 6 -17 12 -22 12 -6 0 -13 7
-16 16 -3 8 -10 12 -16 9 -5 -3 -10 -2 -10 3 0 5 -37 38 -82 73 -46 35 -84 67
-86 71 -2 4 -8 8 -12 8 -5 0 -22 12 -37 26 -54 49 -60 54 -66 54 -3 0 -17 10
-30 23 -13 12 -41 36 -63 54 -21 17 -50 41 -64 53 -60 52 -118 104 -152 136
-21 19 -39 34 -40 33 -2 -1 -24 18 -49 42 -25 24 -76 71 -114 104 -38 33 -85
77 -105 98 -20 20 -40 37 -43 37 -3 0 -26 20 -51 45 -26 25 -51 45 -56 45 -6
0 -10 7 -10 15 0 8 -4 15 -9 15 -9 0 -56 44 -258 238 -36 34 -69 62 -75 62 -5
0 -6 5 -3 10 3 6 2 10 -3 10 -6 0 -31 20 -56 46 -27 26 -51 42 -58 38 -6 -4
-9 -3 -5 2 3 5 -1 18 -9 29 -8 10 -14 16 -14 13 0 -13 -557 535 -755 744 -103
108 -390 423 -481 528 -21 25 -41 47 -44 50 -19 18 -202 235 -262 312 -67 84
-207 273 -250 338 -17 26 -252 345 -287 390 -10 14 -49 66 -85 115 -36 50 -69
95 -73 100 -5 6 -33 43 -62 84 l-54 75 39 -24 c21 -13 49 -28 61 -34z m1210
-43 c-4 -3 -1 -13 6 -22 11 -14 10 -14 -5 -2 -16 12 -16 31 -1 31 4 0 3 -3 0
-7z m93 -100 c0 -2 -16 9 -35 24 -19 15 -35 31 -35 36 0 4 16 -7 35 -24 19
-18 35 -34 35 -36z m1904 -1139 c3 -8 2 -12 -4 -9 -6 3 -10 10 -10 16 0 14 7
11 14 -7z m-90 -2223 c-2 -3 -12 3 -22 13 -16 17 -16 18 5 5 12 -7 20 -15 17
-18z m356 -313 c0 -12 -6 -9 -26 13 -19 22 -19 22 4 8 12 -8 22 -17 22 -21z
m76 -66 c13 -13 24 -20 24 -17 0 3 11 -5 24 -19 13 -15 26 -26 30 -26 4 0 19
-11 33 -24 15 -14 31 -22 36 -19 6 3 7 1 3 -5 -4 -7 -1 -12 9 -12 9 0 13 -4
10 -10 -3 -5 1 -10 9 -10 9 0 16 -4 16 -10 0 -5 5 -10 11 -10 7 0 22 -11 35
-26 13 -14 24 -22 24 -18 0 4 8 -2 18 -13 9 -11 25 -22 35 -26 16 -6 25 -27
10 -27 -8 0 -70 47 -108 82 -16 15 -33 28 -36 28 -3 0 -17 10 -31 23 -13 12
-68 58 -121 101 -53 44 -97 84 -97 88 0 8 27 -12 66 -50z m365 -287 c5 4 9 1
9 -4 0 -6 6 -11 13 -11 6 0 32 -18 57 -40 24 -22 48 -40 52 -40 4 0 19 -10 34
-22 14 -13 28 -22 31 -20 2 2 13 -7 24 -19 10 -12 19 -18 19 -13 0 5 5 1 11
-8 5 -10 16 -18 24 -18 7 0 15 -4 17 -8 2 -4 26 -23 53 -42 28 -19 52 -37 55
-40 22 -24 109 -78 115 -72 5 4 5 1 1 -5 -4 -7 -3 -13 2 -13 14 0 97 -71 95
-81 -2 -5 3 -6 11 -3 7 3 23 -7 36 -23 12 -15 24 -26 26 -23 2 3 14 -4 26 -15
13 -11 26 -19 31 -17 4 1 7 -5 7 -14 0 -8 4 -13 9 -10 5 3 12 -1 15 -10 3 -8
11 -12 17 -8 8 4 9 3 5 -4 -4 -7 -1 -12 8 -12 16 0 31 -18 22 -27 -6 -6 -158
104 -164 119 -2 4 -8 8 -13 8 -10 0 -24 10 -60 43 -10 9 -19 14 -19 10 0 -5
-5 0 -11 10 -5 9 -14 17 -20 17 -5 0 -15 5 -22 11 -7 5 -66 48 -132 95 -138
98 -140 99 -294 218 -64 49 -118 91 -120 92 -1 1 1 9 5 16 7 10 9 9 12 -5 2
-9 8 -15 13 -12z m858 -642 c1 9 55 -32 99 -73 12 -11 22 -19 22 -17 0 3 18
-13 40 -36 50 -49 48 -58 -3 -12 -20 19 -37 32 -37 29 0 -3 -10 4 -22 16 -12
11 -26 20 -30 20 -5 0 -6 5 -3 10 3 6 -1 10 -9 10 -9 0 -16 5 -16 11 0 5 -4 8
-9 5 -5 -3 -12 1 -15 10 -4 9 -9 14 -12 11 -10 -10 -36 22 -28 35 5 8 10 6 15
-8 4 -10 8 -15 8 -11z m2141 -189 c25 -30 52 -62 60 -71 13 -14 11 -15 -10 -8
-24 7 -89 65 -73 65 4 0 3 4 -2 8 -6 4 -18 19 -28 35 -32 49 5 29 53 -29z
m-1905 -4 c10 -11 16 -20 13 -20 -3 0 -13 9 -23 20 -10 11 -16 20 -13 20 3 0
13 -9 23 -20z m3669 -903 c-3 -8 15 -27 41 -46 25 -18 45 -37 45 -43 0 -6 3
-9 6 -6 5 5 37 -20 95 -74 11 -10 19 -15 19 -11 0 3 8 -4 19 -15 10 -12 21
-22 25 -22 4 0 18 -11 32 -25 14 -14 30 -22 36 -19 7 4 8 2 4 -4 -4 -7 -1 -12
9 -12 9 0 14 -3 12 -7 -3 -5 1 -14 9 -21 8 -7 14 -10 14 -7 0 7 25 -13 52 -42
12 -13 27 -23 34 -23 7 0 16 -9 19 -21 4 -11 9 -18 12 -15 6 5 95 -62 101 -76
2 -5 9 -8 15 -8 7 0 18 -9 25 -20 7 -11 18 -20 26 -20 8 0 17 -7 20 -16 4 -10
12 -14 23 -10 10 4 14 4 10 0 -10 -10 44 -54 57 -47 6 3 8 3 4 -2 -10 -10 19
-38 32 -30 6 4 9 3 8 -2 -4 -11 49 -62 56 -55 3 3 6 0 6 -6 0 -6 9 -14 20 -17
11 -4 18 -10 15 -15 -5 -8 24 -25 38 -21 5 1 6 -3 3 -8 -6 -9 22 -26 37 -22 5
1 6 -3 2 -8 -3 -6 7 -17 22 -25 15 -8 22 -15 15 -16 -15 0 -53 27 -107 77 -19
18 -35 29 -35 25 0 -4 -4 -2 -8 3 -4 6 -27 26 -52 45 -25 19 -47 37 -50 40 -3
3 -32 25 -65 50 -33 25 -86 66 -117 92 -32 25 -63 51 -70 57 -7 6 -25 21 -40
33 -59 51 -142 118 -214 173 -21 17 -49 40 -62 53 -13 12 -25 22 -28 22 -3 0
-11 6 -19 13 -7 6 -30 26 -50 42 -21 17 -56 47 -79 68 -22 20 -45 37 -51 38
-8 0 13 12 32 18 1 1 0 -5 -3 -12z m1377 -1134 c13 -16 12 -17 -3 -4 -17 13
-22 21 -14 21 2 0 10 -8 17 -17z m-2228 -637 c21 -16 35 -31 33 -33 -6 -6 -18
4 -104 86 -37 35 -44 44 -17 20 28 -25 67 -57 88 -73z m81 -70 c17 -13 42 -33
55 -45 13 -11 28 -21 33 -21 4 0 8 -8 8 -17 0 -15 -1 -15 -12 -1 -7 8 -39 36
-71 62 -59 47 -70 66 -13 22z m113 -108 c-3 -8 -6 -5 -6 6 -1 11 2 17 5 13 3
-3 4 -12 1 -19z m51 -30 c7 -10 17 -16 21 -14 4 3 13 -5 20 -16 l13 -21 -29
21 c-32 23 -76 70 -53 57 8 -5 21 -17 28 -27z m102 -91 c0 -6 -8 0 -19 11 -10
12 -22 18 -26 14 -5 -4 -5 -1 -1 6 6 11 12 10 27 -4 10 -9 19 -22 19 -27z m46
-29 c15 -13 36 -32 48 -44 12 -11 33 -28 49 -37 15 -10 27 -23 27 -30 0 -7 -3
-8 -8 -2 -4 6 -23 22 -42 37 -53 40 -116 98 -108 98 5 0 20 -10 34 -22z m206
-173 c17 -24 6 -24 -17 0 -14 14 -30 25 -34 25 -5 0 -12 7 -15 16 -4 11 3 9
27 -7 17 -13 35 -28 39 -34z m43 -33 c-3 -3 9 -14 26 -24 17 -11 29 -22 26
-25 -4 -3 -13 2 -22 11 -9 9 -20 16 -25 16 -5 0 -14 9 -20 20 -9 16 -8 18 5
14 9 -4 13 -9 10 -12z m2223 -143 l32 -36 -28 5 c-32 5 -64 31 -56 44 3 4 2 7
-3 6 -4 -2 -9 1 -10 6 -1 5 -5 12 -11 15 -5 3 -12 20 -16 36 l-7 30 34 -35
c18 -19 48 -51 65 -71z m-2122 56 c16 -14 33 -25 37 -25 5 0 5 -5 1 -11 -5 -8
-8 -8 -13 0 -4 6 -22 22 -41 36 -19 14 -29 25 -23 25 5 0 23 -11 39 -25z
m1997 5 c9 -11 13 -20 7 -20 -5 0 -14 9 -20 20 -6 11 -9 20 -8 20 2 0 11 -9
21 -20z m-43 -37 c0 -22 -8 -14 -19 20 -10 29 -9 30 4 13 8 -11 15 -26 15 -33z
m-1857 -49 c20 -20 37 -33 37 -30 0 4 11 -3 24 -16 13 -13 33 -31 45 -40 11
-10 21 -23 21 -29 0 -7 -10 0 -21 15 -12 15 -23 25 -25 23 -3 -2 -30 19 -61
47 -30 28 -60 50 -64 49 -5 -2 -9 2 -9 7 0 18 15 11 53 -26z m1596 -52 c7 -14
6 -19 -3 -19 -6 0 -13 9 -13 19 -1 10 0 18 2 18 2 0 9 -8 14 -18z m-1406 -110
c5 -7 13 -9 19 -6 7 4 8 2 4 -4 -4 -7 -1 -12 6 -12 8 0 20 -9 28 -20 8 -11 19
-20 25 -20 6 0 18 -8 27 -17 26 -28 46 -43 58 -43 6 0 8 -4 5 -10 -3 -5 -1
-10 5 -10 6 0 20 -9 32 -20 12 -11 29 -20 37 -20 11 0 12 -3 4 -11 -9 -9 -24
-2 -60 27 -26 21 -52 43 -58 49 -5 6 -26 22 -45 35 -19 13 -54 42 -78 65 -24
22 -48 42 -53 43 -5 2 -9 8 -9 14 0 12 39 -18 53 -40z m2931 -178 c5 -14 4
-15 -9 -4 -17 14 -19 20 -6 20 5 0 12 -7 15 -16z m34 -39 c-3 -3 -9 2 -12 12
-6 14 -5 15 5 6 7 -7 10 -15 7 -18z m-2698 5 c0 -5 7 -10 15 -10 9 0 18 -7 21
-15 4 -8 10 -12 15 -9 5 3 9 0 9 -5 0 -6 7 -11 16 -11 8 0 12 -4 9 -10 -3 -5
1 -10 9 -10 9 0 16 -4 16 -10 0 -5 5 -10 11 -10 6 0 17 -7 26 -16 12 -11 13
-18 4 -27 -8 -8 -11 -7 -11 6 0 9 -7 17 -15 17 -9 0 -18 7 -21 15 -4 8 -13 15
-20 15 -8 0 -17 7 -20 15 -4 8 -12 15 -20 15 -8 0 -14 4 -14 8 0 5 -11 15 -25
22 -25 13 -33 30 -15 30 6 0 10 -4 10 -10z m2734 -26 c4 -9 9 -14 12 -11 3 3
17 -5 30 -18 13 -13 33 -26 44 -30 11 -3 20 -11 20 -16 0 -5 5 -9 11 -9 6 0
24 -10 39 -22 16 -13 52 -39 80 -58 28 -19 58 -41 65 -47 7 -7 18 -13 24 -13
6 0 11 -4 11 -8 0 -5 16 -17 35 -28 19 -10 35 -23 35 -28 0 -5 3 -6 6 -3 4 4
14 -1 23 -11 9 -10 41 -33 71 -52 66 -41 162 -111 172 -125 4 -5 1 -11 -7 -13
-14 -3 -116 63 -243 157 -26 19 -80 57 -122 84 -66 44 -184 133 -216 162 -6 5
-34 28 -62 50 -49 38 -62 55 -43 55 5 0 12 -7 15 -16z m-2559 -104 c-3 -5 -2
-10 4 -10 6 0 21 -11 35 -25 14 -14 27 -25 30 -25 7 0 42 -29 67 -54 11 -11
19 -17 19 -14 0 4 15 -8 34 -25 45 -43 69 -62 80 -64 5 -1 12 -5 15 -10 3 -4
21 -20 39 -35 17 -15 28 -30 22 -33 -5 -3 -10 -2 -10 3 0 5 -21 24 -47 42 -27
19 -50 36 -53 39 -3 4 -27 24 -55 46 -27 21 -58 48 -67 59 -10 10 -18 16 -18
13 0 -8 -33 18 -61 47 -11 11 -19 16 -19 12 0 -4 -7 0 -16 8 -13 14 -12 36 2
36 3 0 2 -4 -1 -10z m3629 -179 c-21 -21 -29 -19 -21 4 4 8 14 15 23 15 16 0
16 -2 -2 -19z m-3244 -137 c0 -7 9 -16 20 -19 11 -3 20 -11 20 -16 0 -5 7 -9
16 -9 8 0 12 -4 9 -10 -3 -5 0 -10 7 -10 7 0 32 -18 56 -40 23 -22 46 -40 51
-40 5 0 19 -12 30 -26 12 -15 21 -24 21 -20 0 4 11 -4 25 -16 14 -13 35 -31
45 -40 11 -10 25 -18 31 -18 5 0 7 -5 3 -12 -5 -8 -2 -9 12 -4 10 4 15 4 11 0
-4 -4 1 -13 11 -20 9 -7 15 -15 12 -17 -5 -5 -148 108 -184 146 -10 9 -20 17
-24 17 -4 0 -27 18 -51 40 -24 22 -46 40 -50 40 -3 1 -28 20 -55 44 -30 26
-42 43 -32 43 9 0 16 -6 16 -13z m1334 -173 c-2 -2 7 -13 19 -26 12 -13 33
-38 47 -56 14 -19 35 -44 47 -56 12 -13 20 -23 17 -23 -3 0 1 -7 8 -15 24 -26
35 -40 73 -95 42 -60 52 -72 78 -101 10 -11 15 -24 12 -30 -4 -5 -1 -8 7 -7 7
2 12 -3 11 -9 -2 -7 2 -13 8 -13 5 0 7 -4 4 -10 -3 -6 4 -10 17 -10 16 0 19
-3 10 -9 -10 -6 -6 -17 20 -44 18 -20 34 -42 36 -49 2 -7 10 -20 18 -29 8 -8
14 -21 14 -28 0 -7 5 -9 10 -6 6 3 10 -1 10 -10 0 -10 5 -13 13 -9 6 4 9 4 5
-1 -8 -9 22 -65 34 -65 4 0 8 -5 8 -11 0 -5 -5 -7 -12 -3 -7 4 -8 3 -4 -4 4
-7 14 -12 22 -12 8 0 12 -4 9 -10 -3 -5 -1 -10 6 -10 7 0 10 -3 6 -6 -3 -4 1
-13 9 -21 8 -8 11 -19 8 -25 -4 -6 -2 -8 4 -4 6 3 13 -3 17 -14 4 -11 11 -18
16 -15 5 3 6 -1 3 -10 -5 -11 0 -18 17 -22 22 -6 22 -7 3 -14 -16 -7 -17 -8
-1 -8 19 -1 25 -51 6 -51 -5 0 -7 -4 -4 -10 3 -5 1 -10 -5 -10 -7 0 -10 -7 -6
-15 3 -8 0 -14 -7 -12 -7 1 -11 -4 -9 -11 1 -8 -1 -11 -6 -8 -5 3 -19 -9 -32
-26 -18 -25 -20 -32 -9 -40 12 -7 11 -9 -1 -7 -28 3 -41 -1 -35 -10 3 -5 -2
-16 -11 -25 -8 -9 -12 -21 -8 -27 4 -7 3 -9 -3 -6 -5 3 -17 -3 -26 -14 -9 -10
-15 -19 -12 -19 3 0 -4 -10 -14 -22 -11 -13 -28 -34 -39 -48 -17 -21 -21 -22
-35 -10 -8 8 -32 29 -53 47 -22 17 -49 39 -61 50 -11 10 -40 34 -63 52 -24 19
-50 42 -58 50 -9 9 -19 16 -23 16 -4 0 -11 3 -15 8 -4 4 -2 7 5 7 7 0 38 -22
70 -50 32 -27 62 -50 68 -50 6 0 13 -4 15 -9 5 -13 109 -94 114 -88 9 9 -8 35
-32 47 -13 7 -24 17 -24 22 0 4 -6 8 -14 8 -8 0 -16 3 -18 8 -1 4 -23 23 -48
42 -25 19 -53 43 -62 54 -10 10 -18 16 -18 13 0 -3 -13 7 -29 21 -46 44 -91
82 -96 82 -2 0 -15 10 -27 23 -13 12 -41 36 -63 52 -21 17 -49 39 -61 50 -12
11 -31 27 -41 35 -10 8 -45 38 -78 65 -33 28 -71 59 -84 70 -13 11 -34 30 -47
43 -13 12 -26 22 -29 22 -3 0 -21 15 -39 33 -48 47 -126 116 -126 112 0 -2
-10 6 -23 18 -13 12 -32 29 -43 37 -45 35 -139 116 -142 123 -2 4 -7 5 -10 3
-4 -2 -23 12 -42 32 -19 19 -28 30 -19 24 9 -7 20 -8 24 -4 5 4 5 2 2 -4 -6
-10 79 -55 133 -70 46 -13 383 -19 417 -8 95 32 205 117 187 146 -4 6 -3 8 3
5 6 -4 11 3 11 16 1 12 3 31 6 42 2 11 5 44 5 74 l1 54 28 -29 c16 -16 28 -31
26 -33z m-989 -61 c-3 -5 -12 -10 -18 -10 -7 0 -6 4 3 10 19 12 23 12 15 0z
m68 -93 c7 3 9 3 5 -2 -7 -7 16 -36 27 -35 3 0 12 -5 19 -12 51 -50 85 -76 92
-70 4 4 4 2 1 -4 -4 -7 3 -14 18 -18 14 -4 25 -12 25 -19 0 -7 15 -21 33 -32
17 -10 48 -35 67 -54 19 -20 36 -34 38 -33 2 2 24 -13 50 -35 25 -21 50 -37
55 -35 5 1 6 -2 3 -7 -3 -5 10 -23 29 -40 20 -17 33 -31 29 -31 -4 0 -28 19
-54 43 -89 80 -120 106 -120 101 0 -3 -10 3 -23 13 -13 10 -23 21 -23 25 1 4
-20 21 -46 37 -27 17 -48 35 -48 40 0 5 -8 12 -19 16 -10 3 -34 20 -52 38 -19
18 -55 48 -81 67 -26 19 -47 42 -47 50 0 10 2 11 6 2 2 -6 10 -9 16 -5z m658
-564 c13 -17 13 -17 -6 -3 -11 8 -22 16 -24 17 -2 2 0 3 6 3 6 0 17 -8 24 -17z
m90 -74 c30 -30 19 -32 -14 -3 -15 13 -23 24 -18 24 6 0 20 -9 32 -21z m44
-28 c3 -5 2 -12 -3 -15 -5 -3 -9 1 -9 9 0 17 3 19 12 6z m2290 -87 c33 -28 70
-58 83 -66 14 -10 19 -18 13 -23 -6 -3 -11 -2 -11 2 0 5 -21 25 -47 45 -48 37
-143 122 -113 102 8 -5 42 -33 75 -60z m-2250 41 c14 -14 25 -23 25 -19 0 4 9
-3 20 -16 11 -13 20 -20 20 -16 0 4 15 -8 34 -26 49 -48 75 -68 89 -69 9 0 9
-2 0 -5 -11 -5 -204 143 -218 167 -11 17 4 9 30 -16z m2414 -172 c68 -68 131
-120 137 -114 4 3 4 0 0 -7 -5 -9 -16 -4 -39 17 -74 69 -122 111 -129 111 -9
0 -11 20 -3 20 3 0 18 -12 34 -27z m-545 -109 c3 -8 9 -13 13 -11 10 6 34 -19
26 -27 -4 -3 -1 -6 5 -6 6 0 23 -11 38 -25 14 -13 31 -22 37 -18 6 3 7 1 3 -5
-6 -11 31 -38 47 -34 4 1 6 -4 5 -10 -2 -7 3 -12 10 -10 6 1 12 -6 12 -15 0
-9 3 -14 6 -10 3 3 17 -6 30 -20 13 -14 24 -23 24 -20 0 3 16 -11 35 -30 20
-20 39 -32 46 -27 7 4 9 3 6 -3 -8 -13 29 -47 42 -38 7 4 8 0 5 -10 -5 -11 0
-18 14 -22 11 -3 23 -12 26 -20 3 -8 11 -11 16 -8 6 4 9 1 8 -7 -2 -7 5 -12
14 -12 10 1 16 -3 15 -10 -1 -6 4 -10 11 -8 8 1 11 -2 7 -7 -7 -12 29 -33 40
-23 3 4 5 3 3 -3 -1 -5 0 -11 5 -12 4 -2 23 -19 41 -38 19 -19 39 -35 45 -35
6 0 11 -4 11 -10 0 -5 8 -10 17 -10 9 0 13 -3 10 -6 -8 -9 44 -54 61 -54 7 0
11 -4 8 -8 -3 -5 7 -17 21 -28 15 -10 32 -24 38 -31 7 -7 16 -9 20 -5 5 4 5 2
2 -4 -7 -11 72 -90 86 -86 5 1 6 -1 4 -5 -3 -5 8 -20 24 -33 16 -14 43 -40 60
-57 18 -18 36 -30 41 -27 5 3 7 2 6 -3 -2 -5 7 -19 20 -33 12 -13 22 -27 22
-32 0 -4 6 -8 14 -8 8 0 18 -9 21 -21 4 -13 12 -18 21 -15 8 3 12 1 9 -4 -3
-5 18 -34 47 -64 57 -59 87 -92 133 -150 17 -21 40 -49 51 -61 12 -13 37 -44
55 -69 18 -25 36 -46 41 -46 4 0 8 -6 8 -12 0 -7 16 -29 35 -48 19 -19 35 -37
35 -41 0 -4 16 -24 35 -43 19 -20 35 -41 35 -46 0 -6 5 -10 10 -10 6 0 16 -11
22 -25 6 -14 18 -25 26 -25 9 0 13 -3 9 -6 -5 -5 1 -14 46 -67 11 -12 33 -39
50 -60 18 -21 51 -60 74 -85 24 -26 43 -50 43 -54 0 -5 7 -8 15 -8 8 0 15 -4
15 -8 0 -16 37 -52 45 -44 5 4 5 2 2 -4 -4 -7 9 -26 28 -43 20 -17 33 -31 31
-31 -3 0 6 -11 20 -25 14 -14 29 -25 35 -25 6 0 8 -4 5 -8 -2 -4 17 -29 44
-55 26 -26 47 -47 45 -47 -3 0 59 -68 115 -125 23 -24 27 -34 19 -48 -6 -9
-15 -15 -21 -11 -6 4 -6 0 1 -14 8 -15 7 -23 -3 -31 -7 -6 -17 -7 -21 -3 -5 4
-5 1 -1 -5 4 -7 2 -13 -3 -13 -6 0 -11 -7 -11 -16 0 -9 -8 -23 -17 -31 -10 -8
-12 -12 -5 -8 6 3 12 1 12 -4 0 -6 -6 -11 -14 -11 -8 0 -18 -5 -22 -12 -4 -7
-3 -8 4 -4 21 12 13 -5 -10 -25 -14 -11 -17 -18 -8 -16 8 2 12 2 8 0 -3 -2
-19 -20 -34 -40 -15 -20 -21 -33 -13 -28 12 8 12 6 0 -8 -7 -9 -17 -14 -22
-11 -5 3 -8 2 -7 -3 1 -4 -3 -18 -10 -29 -6 -12 -8 -25 -4 -29 4 -5 1 -5 -5
-1 -7 4 -13 3 -13 -2 0 -5 -9 -19 -20 -32 -11 -12 -17 -28 -13 -34 3 -6 3 -8
-1 -4 -9 8 -47 -23 -41 -33 3 -4 -1 -9 -8 -12 -8 -3 -59 51 -130 137 -63 78
-124 151 -134 163 -10 12 -34 41 -53 64 -50 62 -104 124 -132 152 -12 13 -45
48 -71 78 -27 30 -113 122 -192 204 -80 83 -162 169 -184 193 -22 23 -44 42
-50 42 -6 0 -11 6 -11 14 0 8 -4 16 -9 18 -5 1 -34 27 -64 56 -31 28 -60 52
-67 52 -6 0 -8 5 -5 10 3 6 2 10 -2 10 -5 0 -21 11 -36 25 -15 14 -27 24 -27
21 0 -2 -15 10 -34 27 -18 18 -44 41 -57 52 -147 121 -192 155 -206 155 -15 0
-16 2 -3 10 9 6 10 10 3 10 -7 0 -28 14 -47 31 -20 17 -40 28 -46 24 -6 -4 -9
-3 -8 2 3 10 -50 63 -64 63 -5 0 -19 9 -31 21 -12 11 -35 30 -50 42 -85 66
-146 116 -177 144 -19 17 -39 33 -45 35 -5 2 -18 12 -30 23 -100 95 -139 125
-159 120 -15 -5 -17 -4 -7 3 11 8 9 15 -13 36 -14 15 -26 25 -26 23 0 -3 -24
18 -52 45 -29 27 -63 57 -75 65 -36 24 -29 41 17 39 28 -2 39 2 36 10 -3 7 2
11 12 9 23 -3 54 14 47 25 -3 6 1 7 9 4 9 -4 18 1 22 10 3 9 9 14 13 11 17
-10 -20 100 -51 153 -53 92 -58 107 -42 130 7 11 10 22 7 26 -3 3 -2 6 4 6 5
0 22 24 38 53 15 28 37 63 49 76 12 13 14 20 6 16 -13 -8 -13 -7 0 11 8 10 20
22 25 26 6 4 6 8 2 8 -5 0 -1 7 7 16 9 8 14 19 11 24 -3 4 2 10 10 14 8 3 15
12 15 21 0 20 26 19 34 -1z m711 -32 c-3 -3 3 -11 13 -19 15 -13 15 -13 -5 -3
-28 13 -37 27 -18 27 8 0 13 -3 10 -5z m65 -63 c0 -5 5 -9 11 -9 7 0 19 -8 28
-18 9 -10 23 -23 32 -28 19 -10 90 -69 158 -131 25 -24 49 -43 54 -43 4 0 7
-5 7 -11 0 -10 -35 15 -105 76 -40 34 -87 74 -157 131 -60 48 -68 57 -43 48 8
-4 15 -10 15 -15z m329 -283 c-3 -3 -11 5 -18 17 -13 21 -12 21 5 5 10 -10 16
-20 13 -22z m-1169 -521 c13 -14 21 -25 18 -25 -2 0 -15 11 -28 25 -13 14 -21
25 -18 25 2 0 15 -11 28 -25z m240 -198 c13 -5 13 -5 0 -6 -8 0 -44 27 -80 61
l-65 61 65 -55 c36 -30 72 -58 80 -61z m25 -35 c-3 -3 -11 0 -18 7 -9 10 -8
11 6 5 10 -3 15 -9 12 -12z m37 -16 c7 4 8 2 4 -4 -7 -11 6 -17 27 -13 5 1 6
-3 2 -8 -3 -6 5 -15 17 -22 13 -7 27 -18 31 -26 5 -7 13 -10 19 -7 7 4 8 2 4
-4 -4 -7 -1 -12 8 -12 8 0 19 -7 24 -17 6 -9 16 -14 25 -10 12 4 14 2 10 -10
-4 -11 -2 -14 5 -9 7 4 12 1 12 -9 0 -9 4 -14 9 -11 5 3 12 -1 15 -10 3 -8 11
-12 17 -8 8 4 9 3 5 -4 -4 -7 -1 -12 7 -12 7 0 23 -10 34 -22 31 -35 61 -57
67 -51 3 4 6 -1 6 -11 0 -9 4 -15 9 -11 5 3 21 -6 35 -20 14 -14 26 -22 26
-18 0 4 8 -3 18 -17 9 -14 23 -26 31 -28 8 -2 22 -11 30 -20 9 -10 41 -38 71
-62 56 -46 89 -75 126 -111 14 -13 27 -18 35 -14 11 6 11 5 2 -5 -11 -12 -45
11 -149 105 -40 36 -64 54 -64 49 0 -3 -13 8 -30 26 -16 18 -30 28 -30 24 -1
-5 -8 0 -18 11 -9 11 -37 33 -62 49 -74 48 -130 98 -123 109 3 6 1 7 -6 3 -7
-4 -33 11 -64 36 -28 24 -60 50 -71 58 -10 8 -26 22 -36 31 -9 8 -37 31 -63
51 -25 19 -43 38 -39 42 3 4 8 2 10 -3 2 -6 9 -8 14 -5z m-2406 -108 c4 -6 3
-8 -4 -4 -6 3 -15 -2 -21 -11 -12 -20 -14 -13 -5 11 7 19 20 21 30 4z m3159
-508 c3 -6 -1 -7 -9 -4 -18 7 -21 14 -7 14 6 0 13 -4 16 -10z"/>
<path d="M5620 14920 c6 -11 13 -20 16 -20 2 0 0 9 -6 20 -6 11 -13 20 -16 20
-2 0 0 -9 6 -20z"/>
<path d="M5646 14883 c-6 -14 -5 -15 5 -6 7 7 10 15 7 18 -3 3 -9 -2 -12 -12z"/>
<path d="M5664 14862 c4 -3 14 -7 22 -8 9 -1 13 0 10 4 -4 3 -14 7 -22 8 -9 1
-13 0 -10 -4z"/>
<path d="M9359 11148 c-5 -18 -6 -38 -1 -34 7 8 12 36 6 36 -2 0 -4 -1 -5 -2z"/>
<path d="M9180 10976 c0 -2 9 -6 20 -9 11 -3 18 -1 14 4 -5 9 -34 13 -34 5z"/>
<path d="M4496 16783 c-7 -18 9 -33 37 -33 9 0 17 -4 17 -10 0 -5 5 -10 10
-10 16 0 105 -43 108 -52 5 -11 32 11 32 24 0 6 -7 8 -15 4 -9 -3 -15 1 -15
11 0 13 -2 14 -17 2 -9 -8 -14 -9 -10 -3 6 11 -23 31 -53 36 -8 2 -18 7 -21
12 -4 5 -18 9 -33 9 -14 0 -23 3 -21 8 3 4 1 10 -4 13 -5 3 -12 -2 -15 -11z"/>
<path d="M4706 16687 c-19 -14 -14 -17 70 -56 49 -23 111 -53 138 -67 26 -14
55 -23 63 -20 8 3 12 2 9 -2 -7 -12 52 -44 66 -36 6 4 8 3 5 -3 -4 -6 15 -21
41 -34 26 -13 49 -27 50 -31 2 -5 8 -8 14 -8 6 0 26 -11 45 -26 18 -14 33 -22
33 -18 0 4 8 -3 19 -14 10 -12 23 -22 30 -22 6 0 11 -4 11 -10 0 -5 6 -10 14
-10 8 0 17 -7 20 -16 3 -8 10 -12 16 -9 5 3 10 1 10 -4 0 -6 7 -11 16 -11 10
0 14 -6 11 -15 -4 -8 -1 -17 5 -21 7 -4 8 -3 4 4 -4 7 -2 12 3 12 18 0 12 30
-6 37 -10 4 -29 17 -43 30 -14 13 -28 23 -31 23 -3 0 -19 11 -35 25 -16 14
-34 25 -40 25 -5 0 -15 5 -22 12 -13 13 -105 68 -162 96 -19 9 -37 20 -40 23
-10 12 -70 39 -70 32 0 -5 -4 -3 -8 2 -14 19 -72 46 -84 39 -7 -5 -8 -3 -3 6
6 10 3 12 -13 8 -12 -4 -20 -3 -18 0 5 10 -20 32 -28 25 -3 -4 -6 -1 -6 7 0
10 -3 10 -15 0 -9 -7 -18 -10 -22 -6 -3 3 -1 6 6 6 7 0 10 4 6 10 -3 5 -12 7
-19 4 -8 -3 -16 2 -18 11 -3 14 -5 14 -22 2z"/>
<path d="M2402 14058 c-7 -7 -12 -9 -12 -5 0 4 -10 2 -22 -5 -13 -7 -26 -11
-30 -10 -5 1 -8 -2 -8 -6 0 -5 -6 -9 -14 -9 -8 0 -11 7 -9 18 4 13 0 17 -14
14 -10 -2 -26 -4 -36 -4 -10 -1 -15 -5 -12 -11 4 -6 -8 -11 -27 -12 -18 0 -40
-1 -48 -2 -8 -1 -16 -9 -18 -19 -3 -12 -9 -16 -19 -13 -14 6 -14 4 -2 -11 9
-11 10 -14 2 -9 -7 4 -13 2 -13 -3 0 -6 -4 -11 -10 -11 -5 0 -6 8 -3 17 5 12
1 11 -15 -5 -23 -23 -29 -38 -12 -27 6 3 10 1 10 -5 0 -7 -7 -9 -17 -6 -12 5
-29 -7 -59 -40 -24 -26 -41 -51 -38 -55 3 -5 -3 -6 -12 -2 -14 5 -16 3 -11
-11 4 -9 3 -15 -2 -12 -5 3 -14 -1 -21 -9 -7 -8 -9 -15 -4 -16 5 0 -2 -5 -15
-10 -15 -6 -21 -14 -17 -25 3 -8 2 -13 -3 -10 -12 8 -44 -31 -36 -44 3 -6 1
-9 -7 -8 -7 2 -12 -5 -12 -14 1 -10 -1 -17 -5 -16 -19 2 -31 -3 -26 -12 3 -6
-1 -13 -9 -16 -9 -3 -16 -12 -16 -20 0 -8 -5 -14 -11 -14 -8 0 -7 -5 1 -16 8
-8 9 -14 4 -13 -22 4 -32 -3 -38 -26 -4 -14 -11 -25 -16 -25 -6 0 -10 -5 -10
-11 0 -6 -9 -24 -21 -40 -11 -16 -17 -34 -13 -40 4 -7 3 -9 -3 -6 -12 8 -43
-34 -43 -58 0 -10 -5 -13 -12 -9 -8 5 -9 2 -5 -9 4 -12 1 -17 -11 -17 -15 0
-15 -2 -2 -10 10 -6 11 -10 3 -10 -7 0 -13 -7 -13 -15 0 -8 -5 -15 -11 -15 -8
0 -8 -4 0 -14 10 -12 8 -14 -11 -10 -13 2 -18 2 -11 -2 7 -3 9 -12 6 -20 -3
-7 -9 -11 -14 -8 -5 3 -9 0 -9 -6 0 -6 -4 -8 -10 -5 -6 3 -7 -1 -3 -10 5 -13
7 -14 14 -3 5 8 9 9 9 2 0 -6 -10 -19 -22 -28 -16 -12 -19 -18 -10 -22 21 -10
13 -22 -10 -17 -19 4 -20 3 -8 -6 10 -7 11 -11 3 -11 -7 0 -13 -8 -13 -19 0
-10 -7 -24 -15 -31 -8 -7 -12 -16 -9 -22 3 -5 0 -15 -6 -23 -6 -8 -9 -19 -5
-25 3 -5 1 -10 -5 -10 -6 0 -8 -4 -5 -10 3 -5 2 -10 -3 -10 -6 0 -9 -13 -8
-29 1 -16 0 -29 -3 -29 -20 2 -22 -4 -8 -20 14 -15 15 -19 2 -19 -8 0 -11 5
-8 10 3 6 1 7 -6 3 -9 -6 -9 -11 0 -22 10 -12 9 -13 -7 -7 -17 6 -18 5 -4 -12
14 -17 13 -18 -4 -12 -17 7 -18 6 -3 -17 15 -22 15 -23 -1 -22 -11 1 -16 -5
-14 -16 2 -10 -3 -18 -10 -18 -9 0 -9 -3 2 -10 9 -6 11 -10 3 -10 -7 0 -10 -7
-6 -17 5 -12 3 -14 -8 -8 -11 7 -11 5 1 -10 14 -17 13 -18 -4 -12 -16 6 -17 5
-6 -8 7 -8 8 -15 3 -15 -6 0 -9 -11 -8 -25 2 -15 -3 -29 -13 -35 -12 -7 -13
-9 -3 -10 11 0 11 -3 1 -15 -7 -8 -9 -15 -5 -15 4 0 1 -8 -6 -17 -12 -15 -12
-16 1 -8 11 6 10 3 -2 -11 -17 -19 -17 -22 -1 -45 14 -20 15 -22 1 -11 -13 10
-17 10 -22 -3 -3 -8 0 -15 7 -15 8 0 8 -3 -2 -9 -7 -5 -10 -14 -7 -20 4 -6 3
-11 -3 -11 -5 0 -8 -12 -5 -26 3 -14 1 -23 -4 -20 -5 3 -9 -1 -9 -9 0 -8 5
-15 11 -15 7 0 7 -3 1 -8 -12 -8 -14 -26 -18 -152 -3 -80 -1 -96 12 -102 14
-6 13 -7 -2 -7 -14 -1 -16 -5 -8 -18 10 -19 11 -25 11 -49 0 -8 4 -13 9 -10 4
3 6 -6 3 -21 -3 -16 -1 -24 5 -20 6 4 17 -1 24 -11 13 -15 12 -16 -3 -4 -10 8
-19 9 -22 3 -3 -5 -2 -11 3 -13 6 -1 12 -14 14 -28 4 -28 38 -90 50 -90 4 0 7
-6 7 -14 0 -32 217 -246 242 -238 4 1 8 -2 8 -7 0 -16 137 -51 234 -59 136
-11 316 -5 406 13 153 31 278 117 375 259 22 32 46 64 53 72 7 8 11 14 7 14
-3 0 2 12 13 28 11 15 23 37 26 50 4 12 11 22 15 22 3 0 7 8 7 18 1 25 8 46
17 53 7 5 18 41 19 67 1 6 4 12 8 12 4 0 7 6 7 13 0 6 4 30 8 52 4 22 8 51 9
65 1 14 4 30 7 35 7 12 3 202 -4 270 -10 81 -29 207 -42 275 -12 60 -16 77
-21 105 -12 68 -77 317 -99 383 -3 7 -5 14 -5 17 0 5 -31 74 -75 169 -45 99
-75 184 -69 200 3 9 13 18 22 21 10 3 31 18 49 33 24 21 31 33 26 50 -3 12 -9
19 -14 16 -5 -3 -6 2 -3 10 3 9 11 13 17 9 6 -3 2 5 -9 19 -10 14 -22 24 -26
22 -4 -3 -22 1 -40 9 -18 7 -45 12 -60 12 -21 -1 -28 4 -28 17 0 16 -23 24
-53 19 -5 -1 -6 3 -3 8 9 15 -16 19 -46 7 -35 -13 -48 0 -19 20 13 10 20 22
17 31 -4 11 -2 13 9 9 8 -3 15 -1 15 4 0 6 7 10 15 10 8 0 15 4 15 10 0 5 6 7
14 4 11 -4 13 0 9 15 -6 25 -6 24 -21 9z m-112 -38 c0 -5 -5 -10 -11 -10 -5 0
-7 5 -4 10 3 6 8 10 11 10 2 0 4 -4 4 -10z m-796 -958 c3 -5 -1 -9 -9 -9 -8 0
-12 4 -9 9 3 4 7 8 9 8 2 0 6 -4 9 -8z m-164 -676 c0 -2 -7 -7 -16 -10 -8 -3
-12 -2 -9 4 6 10 25 14 25 6z m-10 -66 c0 -5 -4 -10 -10 -10 -5 0 -10 5 -10
10 0 6 5 10 10 10 6 0 10 -4 10 -10z m-10 -60 c0 -5 -2 -10 -4 -10 -3 0 -8 5
-11 10 -3 6 -1 10 4 10 6 0 11 -4 11 -10z m10 -54 c0 -3 -4 -8 -10 -11 -5 -3
-10 -1 -10 4 0 6 5 11 10 11 6 0 10 -2 10 -4z m-15 -165 c3 -5 2 -12 -3 -15
-5 -3 -9 1 -9 9 0 17 3 19 12 6z m22 -133 c-3 -8 -6 -5 -6 6 -1 11 2 17 5 13
3 -3 4 -12 1 -19z m18 -27 c-3 -5 -1 -12 5 -16 5 -3 10 -11 10 -18 0 -6 -7 -2
-15 9 -17 23 -19 34 -4 34 5 0 8 -4 4 -9z"/>
<path d="M15367 6905 c3 -8 9 -12 14 -9 12 7 11 11 -5 17 -10 4 -13 1 -9 -8z"/>
<path d="M15150 4200 c0 -5 5 -10 11 -10 5 0 7 5 4 10 -3 6 -8 10 -11 10 -2 0
-4 -4 -4 -10z"/>
</g>
</svg>
